<svg width="14" height="14" viewBox="0 0 14 14" fill="none" xmlns="http://www.w3.org/2000/svg">
<path d="M11.0752 1.75H10.217C10.0017 1.27012 9.50735 0.932422 8.92964 0.932422H8.65189C8.46441 0.377344 7.92698 0 7.32149 0H6.67712H6.67573C6.07025 0 5.53281 0.375977 5.34672 0.932422H5.06897C4.49126 0.932422 3.99688 1.26875 3.78162 1.75H2.92339C2.4165 1.75 1.93739 1.93184 1.57632 2.2627C1.2097 2.59629 1 3.06113 1 3.53691V12.2131C1 13.1988 1.8624 14 2.92339 14H11.0766C11.5835 14 12.0626 13.8182 12.4251 13.4887C12.7903 13.1551 13 12.6902 13 12.2131V3.53691C12.9986 2.55117 12.1362 1.75 11.0752 1.75ZM4.55514 2.2832C4.55514 2.0207 4.78567 1.80742 5.06897 1.80742H5.9897L6.19107 1.20723C6.25772 1.00898 6.45354 0.875 6.67851 0.875H7.32149C7.54646 0.875 7.74228 1.00898 7.80893 1.20859L8.0103 1.80879H8.92964C9.21294 1.80879 9.44208 2.02207 9.44208 2.2832V2.58809C9.44208 2.85059 9.21155 3.06387 8.92964 3.06387H5.06897C4.78567 3.06387 4.55653 2.85059 4.55514 2.58945V2.2832ZM12.1098 12.2131C12.1098 12.4496 12.0071 12.6752 11.8196 12.8461C11.6252 13.0225 11.3544 13.125 11.0766 13.125H2.92339C2.35401 13.125 1.88879 12.7162 1.88879 12.2131V3.53691C1.88879 3.30039 1.99155 3.0748 2.17903 2.90391C2.37345 2.72617 2.64425 2.625 2.922 2.625H3.66914C3.69136 3.35371 4.30656 3.9375 5.06758 3.9375H8.92964C9.69066 3.9375 10.3059 3.35234 10.3281 2.625H11.0752C11.6446 2.625 12.1098 3.03379 12.1098 3.53691V12.2131Z" fill="#0A64FF"/>
<path d="M5.82823 7.01247C5.64697 6.9769 5.45607 7.0186 5.32774 7.12286L4.23853 7.95569L3.87599 7.67849C3.74605 7.57913 3.55676 7.54111 3.38031 7.57668C3.20385 7.61348 3.06429 7.71896 3.01777 7.85388C2.96965 7.9888 3.02098 8.13354 3.15092 8.23289L3.87599 8.78729C3.97224 8.86089 4.10217 8.90259 4.23853 8.90259C4.37488 8.90259 4.50481 8.86089 4.60106 8.78729L6.05282 7.67726C6.18917 7.57913 6.24371 7.43195 6.19719 7.29457C6.15067 7.15597 6.0095 7.04804 5.82823 7.01247ZM10.4867 7.86002H7.40671C7.06503 7.86002 6.89339 7.99126 6.89339 8.25251C6.89339 8.51377 7.06503 8.64501 7.40671 8.64501H10.4867C10.8284 8.64501 11 8.51377 11 8.25251C11 7.99126 10.8284 7.86002 10.4867 7.86002ZM10.4867 10.215H7.40671C7.06503 10.215 6.89339 10.3462 6.89339 10.6075C6.89339 10.8688 7.06503 11 7.40671 11H10.4867C10.8284 11 11 10.8688 11 10.6075C11 10.3462 10.8284 10.215 10.4867 10.215ZM5.35341 10.215H3.64178C3.3001 10.215 3.12846 10.3462 3.12846 10.6075C3.12846 10.8688 3.3001 11 3.64178 11H5.35341C5.69509 11 5.86673 10.8688 5.86673 10.6075C5.86673 10.3462 5.69509 10.215 5.35341 10.215Z" fill="#0A64FF"/>
</svg>
