<svg width="14" height="14" viewBox="0 0 14 14" fill="none" xmlns="http://www.w3.org/2000/svg">
<g clip-path="url(#clip0_2408_29829)">
<path d="M0 10.3674C0 10.8962 0.431077 11.3247 0.962965 11.3247H4.81482L6.50001 13L8.1852 11.3247H12.0371C12.5689 11.3247 13 10.8962 13 10.3674V7C12.2778 9.33026 6.29929 10.0084 4.49373 10.1281C2.68818 10.2477 0 10.3674 0 10.3674Z" fill="black" fill-opacity="0.13"/>
<path d="M5.13332 6.48154H6.53332V8.03709C6.53332 8.32351 6.74222 8.55563 7.00002 8.55563C7.2578 8.55563 7.46668 8.32351 7.46668 8.03709V3.88892C7.46668 3.60252 7.2578 3.3704 7.00002 3.3704C6.74222 3.3704 6.53332 3.60252 6.53332 3.88892V5.44447H5.13332V3.88892C5.13332 3.60252 4.92441 3.3704 4.66662 3.3704C4.40886 3.3704 4.19995 3.60252 4.19995 3.88892V8.03705C4.19995 8.32347 4.40886 8.55559 4.66662 8.55559C4.92441 8.55559 5.13332 8.32347 5.13332 8.03705V6.48154ZM9.33331 4.92595C9.07549 4.92595 8.86661 5.15811 8.86661 5.44451V8.03709C8.86661 8.32351 9.07549 8.55563 9.33331 8.55563C9.59109 8.55563 9.79997 8.32351 9.79997 8.03709V5.44451C9.79997 5.15811 9.59109 4.92595 9.33331 4.92595ZM8.86664 3.88892C8.86664 4.17536 9.07553 4.40748 9.33335 4.40748C9.59112 4.40748 9.80001 4.17536 9.80001 3.88892C9.80001 3.60252 9.59112 3.3704 9.33335 3.3704C9.07553 3.3704 8.86664 3.60252 8.86664 3.88892ZM0 1.55559V10.3704C0 11.2296 0.626717 11.9259 1.4 11.9259H5.13332L6.99998 14L8.86664 11.9259H12.6C13.3732 11.9259 14 11.2296 14 10.3704V1.55559C14 0.696393 13.3732 0 12.6 0H1.4C0.626717 4.05091e-05 0 0.696393 0 1.55559ZM1.4 1.03707H12.5999C12.8577 1.03707 13.0666 1.26919 13.0666 1.55563V10.3704C13.0666 10.6568 12.8577 10.889 12.5999 10.889H8.39998L6.99998 12.4444L5.59995 10.8889H1.4C1.14224 10.8889 0.933331 10.6568 0.933331 10.3704V1.55559C0.933331 1.26919 1.14224 1.03707 1.4 1.03707Z" fill="black" fill-opacity="0.65"/>
</g>
<defs>
<clipPath id="clip0_2408_29829">
<rect width="14" height="14" fill="white"/>
</clipPath>
</defs>
</svg>
