<svg width="14" height="14" viewBox="0 0 14 14" fill="none" xmlns="http://www.w3.org/2000/svg">
<g clip-path="url(#clip0_2408_29816)">
<path d="M12.2 0H3.8C2.81 0 2 0.765464 2 1.70103V7.37113C2 8.3067 2.81 9.07217 3.8 9.07217H7.28C7.43 9.07217 7.55 9.12887 7.67 9.21392L9.65 10.7448C9.86 10.9149 10.13 11 10.4 11C10.58 11 10.76 10.9717 10.91 10.8866C11.33 10.6881 11.6 10.2912 11.6 9.86598V9.63918C11.6 9.32732 11.87 9.07217 12.2 9.07217C13.19 9.07217 14 8.3067 14 7.37113V1.70103C14 0.765464 13.19 0 12.2 0ZM12.8 7.37113C12.8 7.68299 12.53 7.93814 12.2 7.93814C11.21 7.93814 10.4 8.70361 10.4 9.63918V9.86598L8.42 8.33505C8.09 8.0799 7.7 7.93814 7.28 7.93814H3.8C3.47 7.93814 3.2 7.68299 3.2 7.37113V1.70103C3.2 1.38918 3.47 1.13402 3.8 1.13402H12.2C12.53 1.13402 12.8 1.38918 12.8 1.70103V7.37113Z" fill="black" fill-opacity="0.65"/>
<path d="M8.45455 11.1429H6.65455C6.27273 11.1429 5.91818 11.2751 5.61818 11.5132L3.81818 12.9418V12.7302C3.81818 11.8571 3.08182 11.1429 2.18182 11.1429H1.63636C1.33636 11.1429 1.09091 10.9048 1.09091 10.6138V5.5873C1.09091 5.2963 1.33636 5.0582 1.63636 5.0582C1.93636 5.0582 2.18182 4.82011 2.18182 4.5291C2.18182 4.2381 1.93636 4 1.63636 4C0.736364 4 0 4.71429 0 5.5873V10.6138C0 11.4868 0.736364 12.2011 1.63636 12.2011H2.18182C2.48182 12.2011 2.72727 12.4392 2.72727 12.7302V12.9418C2.72727 13.3651 2.97273 13.709 3.35455 13.8942C3.51818 13.9735 3.65455 14 3.81818 14C4.06364 14 4.30909 13.9206 4.5 13.7619L6.3 12.3333C6.40909 12.254 6.51818 12.2011 6.65455 12.2011H8.45455C8.75455 12.2011 9 11.963 9 11.672C9 11.381 8.75455 11.1429 8.45455 11.1429Z" fill="black" fill-opacity="0.65"/>
<path fill-rule="evenodd" clip-rule="evenodd" d="M5.04102 4.48166C5.04102 4.70452 5.12955 4.91825 5.28713 5.07584C5.44472 5.23342 5.65845 5.32195 5.88131 5.32195C6.10417 5.32195 6.31791 5.23342 6.47549 5.07584C6.63308 4.91825 6.72161 4.70452 6.72161 4.48166C6.72161 4.25879 6.63308 4.04506 6.47549 3.88747C6.31791 3.72989 6.10417 3.64136 5.88131 3.64136C5.65845 3.64136 5.44472 3.72989 5.28713 3.88747C5.12955 4.04506 5.04102 4.25879 5.04102 4.48166ZM10.0837 4.48166C10.0837 4.70452 10.1722 4.91825 10.3298 5.07584C10.4874 5.23342 10.7011 5.32195 10.924 5.32195C11.1468 5.32195 11.3606 5.23342 11.5181 5.07584C11.6757 4.91825 11.7643 4.70452 11.7643 4.48166C11.7643 4.25879 11.6757 4.04506 11.5181 3.88747C11.3606 3.72989 11.1468 3.64136 10.924 3.64136C10.7011 3.64136 10.4874 3.72989 10.3298 3.88747C10.1722 4.04506 10.0837 4.25879 10.0837 4.48166ZM7.80732 5.07584C7.64973 4.91825 7.5612 4.70452 7.5612 4.48166C7.5612 4.25879 7.64973 4.04506 7.80732 3.88747C7.9649 3.72989 8.17864 3.64136 8.4015 3.64136C8.62436 3.64136 8.83809 3.72989 8.99568 3.88747C9.15326 4.04506 9.24179 4.25879 9.24179 4.48166C9.24179 4.70452 9.15326 4.91825 8.99568 5.07584C8.83809 5.23342 8.62436 5.32195 8.4015 5.32195C8.17864 5.32195 7.9649 5.23342 7.80732 5.07584Z" fill="black" fill-opacity="0.65"/>
</g>
<defs>
<clipPath id="clip0_2408_29816">
<rect width="14" height="14" fill="white"/>
</clipPath>
</defs>
</svg>
