<svg width="352" height="506" viewBox="0 0 352 506" fill="none" xmlns="http://www.w3.org/2000/svg">
<g clip-path="url(#clip0_2265_109407)" filter="url(#filter0_b_2265_109407)">
<rect width="357" height="509" transform="translate(-5)" fill="url(#paint0_linear_2265_109407)" fill-opacity="0.7"/>
<g filter="url(#filter1_b_2265_109407)">
<rect x="-4.06348" width="356.063" height="509" fill="url(#paint1_linear_2265_109407)" fill-opacity="0.7"/>
<g clip-path="url(#clip1_2265_109407)">
<path d="M142.209 280.722C76.3596 289.242 43.4348 293.501 43.4952 298.885C43.5892 307.227 108.174 323.538 142.897 313.543C144.985 312.941 157.896 309.096 159.977 312.712C161.907 316.062 152.057 322.053 153.266 326.927C155.371 335.438 189.967 335.891 223.2 330.576C252.22 325.935 298.858 313.912 298.179 301.664C297.921 297.032 290.948 293.936 285.937 291.792C233.803 269.465 156.869 278.826 142.209 280.722Z" fill="url(#paint2_linear_2265_109407)"/>
<path d="M86.6488 297.8C80.173 298.763 71.2622 300.046 71.251 301.879C71.2341 305.263 101.502 309.006 128.894 309.38C149.175 309.661 164.093 308.043 172.85 307.143C245.848 299.65 286.333 301.399 286.427 297.8C286.541 293.388 225.778 288.711 225.889 287.535C225.951 286.86 269.696 291.793 269.976 289.903C270.175 288.562 248.718 282.277 223.65 279.769C183.318 275.734 171.14 285.233 86.6488 297.8Z" fill="#D8DEE8"/>
<path d="M188.223 321.111C174.817 323.257 167.378 324.447 167.429 325.716C167.482 327.028 175.569 329.404 182.827 326.9C187.126 325.42 188.091 323.281 193.092 322.294C196.834 321.557 197.724 322.474 202.173 322.163C208.982 321.689 215.096 318.978 214.945 318.215C214.662 316.878 194.827 320.053 188.223 321.111Z" fill="#D8DEE8"/>
<path style="mix-blend-mode:multiply" opacity="0.15" d="M98.7271 176.629L80.1279 176L70.5195 193.353L80.1279 210.967L98.7271 210.846L107.732 193.861L98.7271 176.629Z" fill="url(#paint3_linear_2265_109407)"/>
<path style="mix-blend-mode:multiply" opacity="0.47" d="M128.166 196.39L110.845 196.201L101.909 213.148L110.845 229.93L128.166 229.422L136.56 212.828L128.166 196.39Z" fill="url(#paint4_linear_2265_109407)"/>
<path style="mix-blend-mode:multiply" opacity="0.47" d="M176.993 186.841L159.985 185.955L151.209 202.389L159.985 219.379L176.993 219.573L185.235 203.468L176.993 186.841Z" fill="url(#paint5_linear_2265_109407)"/>
<path style="mix-blend-mode:multiply" opacity="0.15" d="M63.5753 240.647L44.7347 240.234L35 257.813L44.7347 275.428L63.5753 275.086L72.6967 257.883L63.5753 240.647Z" fill="url(#paint6_linear_2265_109407)"/>
<path opacity="0.5" d="M93.3942 260.186L75.8504 260.202L66.7979 277.364L75.8504 294.148L93.3942 293.43L101.897 276.631L93.3942 260.186Z" fill="url(#paint7_linear_2265_109407)"/>
<path style="mix-blend-mode:multiply" opacity="0.47" d="M93.3942 222.368L75.8504 221.583L66.7979 238.334L75.8504 255.531L93.3942 255.612L101.897 239.2L93.3942 222.368Z" fill="url(#paint8_linear_2265_109407)"/>
<path style="mix-blend-mode:multiply" opacity="0.15" d="M235.074 218.282L221.036 217.904L213.813 233.024L221.036 248.24L235.074 248.049L241.896 233.21L235.074 218.282Z" fill="url(#paint9_linear_2265_109407)"/>
<path style="mix-blend-mode:multiply" opacity="0.47" d="M235.074 252.226L221.036 252.496L213.813 267.95L221.036 282.832L235.074 281.992L241.896 266.839L235.074 252.226Z" fill="url(#paint10_linear_2265_109407)"/>
<path opacity="0.5" d="M257.448 203.154L244.26 202.509L237.481 217.012L244.26 231.904L257.448 232.015L263.864 217.77L257.448 203.154Z" fill="url(#paint11_linear_2265_109407)"/>
<path opacity="0.5" d="M266.154 217.834L259.78 232.035L288.132 232.275L294.01 218.634L266.154 217.834Z" fill="url(#paint12_linear_2265_109407)"/>
<path d="M244.233 266.748L237.454 281.851L285.155 278.999L291.085 264.895L244.233 266.748Z" fill="white"/>
<path opacity="0.5" d="M257.448 235.358L244.26 235.308L237.481 250.118L244.26 264.704L257.448 264.22L263.864 249.682L257.448 235.358Z" fill="url(#paint13_linear_2265_109407)"/>
<path style="mix-blend-mode:multiply" opacity="0.15" d="M278.503 188.234L266.089 187.34L259.713 201.266L266.089 215.851L278.503 216.243L284.548 202.551L278.503 188.234Z" fill="url(#paint14_linear_2265_109407)"/>
<path style="mix-blend-mode:multiply" opacity="0.15" d="M301.204 190.146L281.198 188.396L287.205 202.668L281.198 216.317L301.204 216.369L306.505 203.531L301.204 190.146Z" fill="url(#paint15_linear_2265_109407)"/>
<path style="mix-blend-mode:multiply" opacity="0.15" d="M307.447 235.508L259.713 235.327L266.089 249.607L259.713 264.096L307.447 262.346L313 248.836L307.447 235.508Z" fill="url(#paint16_linear_2265_109407)"/>
<path d="M233.826 231.305L228.668 283.839C228.625 284.205 228.726 284.573 228.95 284.865C229.174 285.158 229.504 285.351 229.868 285.404L255.792 288.624C257.403 288.748 258.273 287.932 258.36 287.093L264.278 230.301C264.367 229.441 263.552 228.682 261.906 228.714L235.343 229.81C234.585 229.838 233.904 230.511 233.826 231.305Z" fill="url(#paint17_linear_2265_109407)"/>
<path d="M232.661 231.235L227.491 283.997C227.416 284.777 227.956 285.484 228.696 285.569L255.543 288.628C255.745 288.652 255.95 288.636 256.145 288.581C256.341 288.526 256.524 288.433 256.683 288.307C256.842 288.181 256.976 288.025 257.074 287.847C257.173 287.67 257.236 287.474 257.26 287.272L263.191 230.223C263.216 230.025 263.196 229.824 263.134 229.634C263.072 229.445 262.968 229.271 262.831 229.127C262.693 228.982 262.525 228.87 262.339 228.799C262.153 228.727 261.953 228.698 261.754 228.713L234.179 229.734C233.421 229.763 232.738 230.438 232.661 231.235Z" fill="url(#paint18_linear_2265_109407)"/>
<path d="M233.223 234.167L228.423 283.087C228.382 283.43 228.477 283.775 228.687 284.049C228.896 284.323 229.205 284.504 229.546 284.554L254.809 287.361C254.997 287.383 255.187 287.367 255.369 287.316C255.55 287.264 255.72 287.177 255.868 287.06C256.016 286.942 256.14 286.797 256.232 286.632C256.324 286.467 256.382 286.285 256.404 286.098L261.866 233.452C261.889 233.268 261.87 233.081 261.813 232.905C261.755 232.729 261.659 232.567 261.532 232.432C261.405 232.297 261.25 232.192 261.077 232.124C260.905 232.056 260.719 232.026 260.534 232.038L234.647 232.784C233.935 232.795 233.298 233.423 233.223 234.167Z" fill="url(#paint19_linear_2265_109407)"/>
<path d="M246.796 230.932C246.787 230.996 246.792 231.062 246.812 231.124C246.831 231.186 246.863 231.243 246.907 231.292C246.951 231.34 247.005 231.378 247.065 231.402C247.125 231.427 247.19 231.439 247.255 231.436C247.397 231.426 247.531 231.366 247.633 231.268C247.736 231.17 247.801 231.039 247.817 230.898C247.826 230.834 247.821 230.768 247.802 230.705C247.783 230.643 247.75 230.586 247.706 230.538C247.663 230.49 247.608 230.452 247.548 230.427C247.488 230.403 247.423 230.392 247.358 230.396C247.216 230.405 247.083 230.464 246.98 230.562C246.878 230.66 246.813 230.791 246.796 230.932Z" fill="url(#paint20_linear_2265_109407)"/>
<path d="M271.988 294.784L83.8682 293.38V297.524C83.869 298.067 84.0641 298.592 84.4183 299.004C84.7725 299.416 85.2624 299.687 85.7994 299.769L138.999 307.929C139.63 308.026 140.27 308.052 140.906 308.006L269.946 298.71C270.501 298.67 271.021 298.421 271.4 298.014C271.779 297.606 271.99 297.07 271.989 296.513L271.988 294.784Z" fill="#BFC8D6"/>
<path d="M203.721 287.938L85.8142 295.517C83.709 295.657 81.9883 294.211 81.9883 292.298V215.646C81.9883 213.733 83.7034 212.182 85.8142 212.182H203.721C204.133 212.181 204.541 212.262 204.922 212.418C205.303 212.575 205.65 212.806 205.942 213.097C206.234 213.387 206.465 213.733 206.624 214.113C206.782 214.494 206.864 214.901 206.865 215.313V284.604C206.852 285.452 206.522 286.265 205.94 286.882C205.359 287.499 204.567 287.875 203.721 287.938Z" fill="#BFC8D6"/>
<path d="M205.599 287.938L87.6927 295.517C85.5875 295.657 83.8682 294.211 83.8682 292.298V215.646C83.8682 213.733 85.5832 212.182 87.6927 212.182H205.599C206.012 212.181 206.42 212.261 206.801 212.418C207.182 212.575 207.529 212.805 207.821 213.096C208.113 213.387 208.344 213.732 208.503 214.113C208.661 214.493 208.743 214.901 208.743 215.313V284.604C208.731 285.452 208.401 286.265 207.819 286.882C207.237 287.499 206.445 287.876 205.599 287.938Z" fill="#D8DEE8"/>
<path d="M201.927 283.052L92.1086 289.635C90.3921 289.737 88.9971 288.554 88.9971 286.993V219.885C88.9971 218.324 90.3921 217.052 92.1086 217.045L201.927 216.633C202.266 216.63 202.602 216.694 202.917 216.821C203.231 216.949 203.517 217.137 203.758 217.376C203.999 217.614 204.19 217.898 204.321 218.211C204.452 218.524 204.52 218.859 204.521 219.198V280.321C204.51 281.019 204.238 281.687 203.757 282.193C203.277 282.699 202.623 283.006 201.927 283.052Z" fill="#EFF2F6"/>
<path d="M150.811 214.278C150.825 214.549 150.758 214.819 150.617 215.052C150.477 215.285 150.269 215.47 150.022 215.584C149.775 215.698 149.5 215.735 149.231 215.691C148.963 215.647 148.714 215.523 148.516 215.336C148.319 215.148 148.183 214.906 148.124 214.64C148.066 214.375 148.089 214.097 148.19 213.845C148.291 213.592 148.465 213.376 148.69 213.223C148.916 213.071 149.182 212.989 149.454 212.989C149.804 212.982 150.143 213.113 150.397 213.354C150.652 213.595 150.8 213.927 150.811 214.278Z" fill="white"/>
<g style="mix-blend-mode:soft-light" opacity="0.48">
<path d="M177.67 266.947C168.535 262.496 161.35 268.136 154.418 262.572C150.208 259.204 152.278 256.677 147.106 251.642C141.378 246.059 137.649 247.935 131.892 242.911C124.613 236.557 128.254 231.614 121.983 227.051C114.378 221.517 106.174 226.638 98.9335 221.332C95.8107 219.043 94.097 215.718 93.2016 212.175H86.1167C84.876 212.175 83.8711 213.086 83.8711 214.209V293.726C83.8711 294.849 84.8788 295.691 86.1167 295.616L206.899 287.859C207.186 287.838 207.464 287.756 207.716 287.616C207.967 287.477 208.185 287.285 208.355 287.053C199.513 286.762 194.081 284.078 190.609 281.299C183.817 275.872 184.995 270.52 177.67 266.947Z" fill="white"/>
</g>
<path d="M210.297 287.726L83.8682 295.702L138.999 304.154C139.63 304.25 140.27 304.276 140.906 304.231L271.994 294.784L212.317 287.78C211.646 287.701 210.97 287.683 210.297 287.726Z" fill="white"/>
<path opacity="0.47" d="M102.316 295.771L207.575 289.031L240.151 292.823L135.8 300.027L102.316 295.771Z" fill="#D8DEE8"/>
<mask id="mask0_2265_109407" style="mask-type:alpha" maskUnits="userSpaceOnUse" x="88" y="216" width="117" height="74">
<path d="M201.927 283.052L92.1086 289.634C90.3921 289.737 88.9971 288.554 88.9971 286.993V219.885C88.9971 218.324 90.3921 217.052 92.1086 217.045L201.927 216.633C202.266 216.63 202.602 216.694 202.917 216.821C203.231 216.949 203.517 217.137 203.758 217.376C203.999 217.614 204.19 217.898 204.321 218.211C204.452 218.524 204.52 218.859 204.521 219.198V280.321C204.51 281.019 204.238 281.687 203.757 282.193C203.277 282.699 202.623 283.006 201.927 283.052Z" fill="#EFF2F6"/>
</mask>
<g mask="url(#mask0_2265_109407)">
<path d="M192.221 242.487C192.944 240.404 192.655 239.259 192.221 238.598C191.618 237.671 190.235 236.902 187.684 235.033C187.517 234.909 187.229 234.692 187.262 234.571C187.352 234.275 188.742 234.431 189.95 235.033C191.702 235.909 192.067 235.976 193.108 236.286C194.948 236.833 196.566 236.376 199.025 235.681C200.428 235.282 201.786 234.739 203.077 234.06C203.077 234.06 204.86 233.25 205.345 234.06L202.753 235.357C202.753 235.357 205.021 234.384 206.318 235.033L201.78 236.977C201.78 236.977 205.184 236.004 205.345 236.652C203.133 238.231 201.182 238.769 199.674 238.922C197.351 239.156 195.603 238.525 194.973 239.407C194.467 240.122 194.993 241.395 195.622 242.487H192.221Z" fill="url(#paint21_linear_2265_109407)"/>
<path d="M161.753 257.72C163.776 254.692 166.258 252.878 168.055 251.784C169.018 252.209 169.949 252.705 170.839 253.267C174.124 255.341 174.488 256.836 177.27 258.567C178.748 259.485 180.58 260.621 182.929 260.466C185.634 260.287 187.488 258.501 188.262 257.755C193.548 252.658 191.481 243 191.253 242.001L197.245 241.838C198.296 243.683 204.09 255.438 199.837 267.282C193.747 284.245 168.974 284.391 161.484 276.582C157.023 271.932 157.049 264.767 161.753 257.72Z" fill="url(#paint22_linear_2265_109407)"/>
<path d="M123.307 308.35C122.144 306.635 121.209 304.776 120.525 302.82C118.05 295.83 119.394 289.556 119.728 287.779C120.851 281.81 121.019 270.818 117.306 248.922C134.116 244.659 151.829 245.66 168.052 251.789C168.183 259.627 167.705 267.463 166.623 275.228C165.405 283.863 164.219 286.62 164.082 294.005C163.872 305.118 166.411 306.684 164.476 310.131C158.914 320.041 131.064 319.359 123.307 308.35Z" fill="url(#paint23_linear_2265_109407)"/>
<path d="M141.905 234.862L140.916 244.265C140.872 244.676 140.687 245.06 140.391 245.349C140.095 245.638 139.707 245.814 139.295 245.848L129.189 246.682L147.856 252.407L156.417 248.324L148.591 245.894C148.263 245.793 147.971 245.598 147.751 245.334C147.532 245.069 147.393 244.747 147.354 244.405L146.671 238.596L141.905 234.862Z" fill="url(#paint24_linear_2265_109407)"/>
<path d="M140.082 233.403C142.141 238.128 147.292 242.038 149.954 240.877C152.616 239.716 152.34 233.841 150.274 229.117C148.208 224.393 144.273 222.596 141.612 223.751C138.951 224.907 138.024 228.679 140.082 233.403Z" fill="url(#paint25_linear_2265_109407)"/>
<path d="M143.544 232.982C143.284 233.177 142.27 231.786 141.708 232.035C141.234 232.244 141.106 233.61 141.68 234.544C142.17 235.342 142.821 235.262 143.011 235.883C143.322 236.905 141.962 238.431 141.453 238.251C141.126 238.136 141.398 237.409 141.079 236.567C140.456 234.929 138.413 235.118 136.729 233.865C134.098 231.9 133.381 227.096 134.95 225.304C135.545 224.622 136.214 224.667 137.025 223.568C137.902 222.377 137.519 221.779 138.192 221.015C139.338 219.716 141.851 219.837 143.439 220.313C145.444 220.912 145.596 221.969 146.926 221.895C148.51 221.802 148.738 220.299 150.626 220.022C150.736 220.007 152.498 219.775 153.826 220.922C155.55 222.411 155.127 225.003 155.068 225.371C154.685 227.716 152.768 229.834 150.649 230.316C150.202 230.415 150.292 230.316 145.801 230.212C144.317 230.177 143.415 230.165 143.122 230.688C142.691 231.438 143.805 232.78 143.544 232.982Z" fill="url(#paint26_linear_2265_109407)"/>
<path style="mix-blend-mode:multiply" opacity="0.3" d="M119.728 266.324C122.114 267.405 123.397 268.774 124.132 270.038C126.939 274.854 122.622 279.581 125.72 285.598C127.85 289.741 130.675 289.027 132.07 292.896C133.859 297.868 129.965 301.145 130.164 306.23C130.266 308.797 131.414 312.001 135.308 315.664C130.197 314.26 125.753 311.81 123.307 308.336C122.144 306.621 121.209 304.762 120.525 302.806C118.049 295.816 119.394 289.542 119.728 287.765C120.5 283.656 120.821 277.149 119.728 266.324Z" fill="url(#paint27_linear_2265_109407)"/>
<path d="M109.226 312.36C100.91 308.34 100.697 294.102 100.583 286.766C100.493 280.999 100.123 256.774 114.117 250.105C116.15 249.152 118.346 248.595 120.587 248.464C122.199 249.447 126.229 252.233 127.662 257.238C128.475 260.073 128.224 262.826 127.149 266.551C124.36 276.185 120.193 277.894 117.64 284.258C112.437 297.211 121.933 308.771 116.923 312.718C114.331 314.76 109.654 312.561 109.226 312.36Z" fill="url(#paint28_linear_2265_109407)"/>
</g>
<path opacity="0.75" d="M215.72 198.02C215.72 188.671 207.76 181.092 197.943 181.092C188.125 181.092 180.166 188.671 180.166 198.02C180.166 203.693 183.097 208.714 187.596 211.785C188.537 212.423 189.309 213.281 189.843 214.284C190.378 215.288 190.659 216.407 190.663 217.544V218.838C190.663 220.189 191.2 221.486 192.155 222.442C193.111 223.398 194.407 223.935 195.759 223.935H200.127C201.478 223.935 202.775 223.398 203.73 222.442C204.686 221.486 205.223 220.189 205.223 218.838V217.544C205.227 216.407 205.509 215.289 206.043 214.287C206.578 213.284 207.349 212.427 208.289 211.789C212.788 208.714 215.72 203.693 215.72 198.02Z" fill="#F4F7FA"/>
<path d="M197.942 233.574C200.12 233.574 201.886 232.639 201.886 231.486C201.886 230.333 200.12 229.398 197.942 229.398C195.764 229.398 193.998 230.333 193.998 231.486C193.998 232.639 195.764 233.574 197.942 233.574Z" fill="url(#paint29_linear_2265_109407)"/>
<path d="M192.703 227.757V229.894C192.704 230.247 192.804 230.591 192.991 230.889C193.179 231.187 193.447 231.426 193.764 231.579C194.668 232.01 196.171 232.483 198.355 232.421C200.128 232.376 201.283 232.087 202.017 231.782C202.364 231.636 202.659 231.391 202.867 231.077C203.074 230.763 203.184 230.394 203.182 230.018V228.839L192.703 227.757Z" fill="url(#paint30_linear_2265_109407)"/>
<path style="mix-blend-mode:multiply" opacity="0.3" d="M192.703 229.624C192.864 229.782 193.051 229.912 193.255 230.01C194.269 230.494 200.912 231.574 202.518 230.972C202.719 230.898 202.908 230.794 203.079 230.664C203.151 230.459 203.187 230.243 203.187 230.026V228.847L192.709 227.757L192.703 229.624Z" fill="url(#paint31_linear_2265_109407)"/>
<path d="M193.174 226.306C193.035 226.291 192.894 226.306 192.761 226.349C192.628 226.393 192.505 226.464 192.401 226.558C192.297 226.651 192.214 226.766 192.157 226.894C192.1 227.022 192.071 227.161 192.071 227.301V227.368C192.071 227.765 192.182 228.153 192.393 228.489C192.603 228.825 192.904 229.095 193.261 229.267C194.276 229.75 200.919 230.831 202.525 230.228C202.91 230.096 203.244 229.845 203.479 229.512C203.714 229.179 203.837 228.779 203.831 228.372V228.324C203.831 228.077 203.739 227.838 203.574 227.654C203.408 227.47 203.18 227.355 202.934 227.329L193.174 226.306Z" fill="url(#paint32_linear_2265_109407)"/>
<path style="mix-blend-mode:multiply" opacity="0.3" d="M202.924 227.322L193.175 226.306C192.994 226.287 192.811 226.318 192.646 226.395C192.481 226.473 192.341 226.595 192.24 226.746C192.439 227.216 192.802 227.597 193.262 227.817C194.277 228.302 201.202 229.523 202.525 228.901C203.029 228.669 203.432 228.261 203.658 227.754C203.575 227.632 203.466 227.53 203.339 227.456C203.212 227.381 203.07 227.335 202.924 227.322Z" fill="url(#paint33_linear_2265_109407)"/>
<path d="M192.786 222.852C192.691 222.852 192.597 222.87 192.51 222.907C192.422 222.943 192.343 222.996 192.276 223.063C192.209 223.13 192.156 223.209 192.119 223.297C192.083 223.385 192.064 223.478 192.064 223.573V225.243C192.064 225.64 192.175 226.028 192.386 226.364C192.596 226.7 192.898 226.97 193.255 227.142C194.269 227.626 201.194 228.847 202.518 228.226C202.901 228.055 203.228 227.777 203.46 227.427C203.691 227.076 203.818 226.667 203.824 226.247V223.579C203.824 223.484 203.806 223.39 203.769 223.302C203.733 223.215 203.68 223.135 203.613 223.068C203.545 223.001 203.466 222.948 203.378 222.912C203.29 222.876 203.196 222.857 203.102 222.857L192.786 222.852Z" fill="url(#paint34_linear_2265_109407)"/>
<path d="M197.942 224.727C201.109 224.727 203.676 224.12 203.676 223.371C203.676 222.622 201.109 222.015 197.942 222.015C194.776 222.015 192.209 222.622 192.209 223.371C192.209 224.12 194.776 224.727 197.942 224.727Z" fill="url(#paint35_linear_2265_109407)"/>
<path style="mix-blend-mode:multiply" d="M215.72 198.02C215.72 188.671 207.76 181.092 197.943 181.092C188.125 181.092 180.166 188.671 180.166 198.02C180.166 203.693 183.097 208.714 187.596 211.785C188.537 212.423 189.309 213.281 189.843 214.284C190.378 215.288 190.659 216.407 190.663 217.544V218.838C190.663 220.189 191.2 221.486 192.155 222.442C193.111 223.398 194.407 223.935 195.759 223.935H200.127C201.478 223.935 202.775 223.398 203.73 222.442C204.686 221.486 205.223 220.189 205.223 218.838V217.544C205.227 216.407 205.509 215.289 206.043 214.287C206.578 213.284 207.349 212.427 208.289 211.789C212.788 208.714 215.72 203.693 215.72 198.02Z" fill="url(#paint36_linear_2265_109407)"/>
<g style="mix-blend-mode:soft-light" opacity="0.5">
<path d="M197.942 223.295C200.259 223.295 202.137 222.851 202.137 222.303C202.137 221.755 200.259 221.311 197.942 221.311C195.625 221.311 193.747 221.755 193.747 222.303C193.747 222.851 195.625 223.295 197.942 223.295Z" fill="#F4F7FA"/>
</g>
<path d="M196.849 222.909C196.79 222.909 196.734 222.887 196.689 222.848C196.645 222.809 196.617 222.756 196.609 222.697L193.522 198.697C193.516 198.635 193.534 198.572 193.574 198.523C193.613 198.474 193.67 198.442 193.732 198.434C193.795 198.426 193.858 198.442 193.909 198.48C193.959 198.518 193.993 198.573 194.003 198.636L197.091 222.636C197.099 222.699 197.081 222.764 197.041 222.815C197.002 222.865 196.944 222.898 196.88 222.906L196.849 222.909Z" fill="url(#paint37_linear_2265_109407)"/>
<path d="M198.766 222.909H198.733C198.67 222.901 198.612 222.868 198.573 222.817C198.534 222.766 198.516 222.702 198.524 222.638L201.612 198.638C201.622 198.576 201.656 198.52 201.706 198.483C201.757 198.445 201.82 198.428 201.883 198.436C201.945 198.445 202.002 198.476 202.041 198.526C202.081 198.575 202.099 198.638 202.093 198.7L199.006 222.7C198.998 222.758 198.969 222.811 198.925 222.849C198.881 222.888 198.824 222.909 198.766 222.909Z" fill="url(#paint38_linear_2265_109407)"/>
<path d="M201.278 198.679C201.238 198.679 201.199 198.669 201.163 198.651C201.128 198.632 201.098 198.604 201.076 198.571L200.224 197.278C200.221 197.273 200.216 197.268 200.21 197.264C200.204 197.261 200.197 197.259 200.19 197.259C200.183 197.259 200.176 197.26 200.17 197.264C200.164 197.268 200.159 197.273 200.157 197.28L199.595 198.222C199.55 198.298 199.486 198.361 199.409 198.406C199.333 198.451 199.246 198.476 199.158 198.478C199.069 198.48 198.981 198.459 198.903 198.418C198.824 198.377 198.757 198.317 198.708 198.243L197.936 197.085C197.933 197.079 197.928 197.075 197.923 197.071C197.917 197.068 197.911 197.067 197.904 197.067C197.887 197.067 197.879 197.067 197.872 197.083L197.192 198.066C197.144 198.135 197.08 198.192 197.006 198.232C196.931 198.271 196.847 198.292 196.763 198.292C196.679 198.292 196.596 198.271 196.521 198.232C196.446 198.193 196.382 198.136 196.333 198.067L195.351 196.664C195.347 196.658 195.342 196.654 195.336 196.65C195.33 196.647 195.323 196.646 195.316 196.645C195.309 196.646 195.303 196.648 195.297 196.652C195.292 196.656 195.287 196.661 195.284 196.667L194.391 198.21C194.375 198.238 194.354 198.262 194.329 198.282C194.303 198.301 194.274 198.315 194.244 198.324C194.213 198.332 194.181 198.334 194.149 198.33C194.117 198.326 194.087 198.315 194.059 198.3C194.031 198.284 194.007 198.262 193.988 198.237C193.968 198.212 193.954 198.183 193.946 198.152C193.938 198.121 193.935 198.089 193.94 198.057C193.944 198.026 193.954 197.995 193.97 197.968L194.863 196.424C194.906 196.347 194.969 196.282 195.045 196.236C195.12 196.19 195.206 196.164 195.295 196.161C195.383 196.157 195.471 196.176 195.55 196.216C195.629 196.255 195.697 196.314 195.747 196.387L196.729 197.791C196.733 197.796 196.738 197.801 196.743 197.804C196.749 197.807 196.755 197.809 196.762 197.809C196.768 197.809 196.775 197.807 196.78 197.804C196.786 197.801 196.791 197.796 196.794 197.791L197.472 196.808C197.52 196.738 197.586 196.68 197.662 196.64C197.738 196.601 197.823 196.58 197.908 196.581C197.994 196.582 198.078 196.604 198.154 196.645C198.229 196.686 198.293 196.745 198.341 196.817L199.112 197.973C199.121 197.987 199.133 197.997 199.146 197.993C199.153 197.993 199.16 197.991 199.166 197.987C199.171 197.984 199.176 197.979 199.18 197.973L199.741 197.031C199.787 196.955 199.851 196.891 199.928 196.846C200.005 196.802 200.092 196.777 200.181 196.775C200.27 196.773 200.358 196.794 200.436 196.835C200.515 196.877 200.582 196.937 200.631 197.012L201.482 198.303C201.506 198.339 201.52 198.382 201.522 198.426C201.525 198.47 201.515 198.513 201.494 198.552C201.473 198.591 201.442 198.623 201.404 198.645C201.367 198.668 201.323 198.679 201.279 198.679H201.278Z" fill="url(#paint39_linear_2265_109407)"/>
<path style="mix-blend-mode:multiply" opacity="0.3" d="M198.266 211.368C198.646 204.843 209.645 203.318 209.597 197.49C209.568 193.902 205.197 191.236 204.264 190.703C197.387 186.773 188.924 191.312 187.175 188.097C186.74 187.297 186.944 186.425 187.06 185.93C187.26 185.145 187.661 184.425 188.224 183.843C183.372 186.865 180.166 192.084 180.166 198.018C180.166 203.691 183.097 208.713 187.596 211.784C188.538 212.422 189.309 213.28 189.843 214.284C190.378 215.287 190.659 216.406 190.663 217.544V218.838C190.663 220.189 191.2 221.486 192.155 222.442C193.111 223.398 194.407 223.935 195.759 223.935H200.127C201.478 223.935 202.775 223.398 203.73 222.442C204.686 221.486 205.223 220.189 205.223 218.838V217.803C204.622 218.264 203.931 218.585 203.174 218.578C200.548 218.561 198.076 214.617 198.266 211.368Z" fill="url(#paint40_linear_2265_109407)"/>
<g style="mix-blend-mode:soft-light" opacity="0.44">
<path d="M198.226 213.433C206.675 213.433 213.524 206.827 213.524 198.679C213.524 190.531 206.675 183.926 198.226 183.926C189.777 183.926 182.928 190.531 182.928 198.679C182.928 206.827 189.777 213.433 198.226 213.433Z" fill="#F4F7FA"/>
</g>
<path opacity="0.7" d="M121.759 204.505V231.906L127.177 236.15L121.759 236.251L116.764 236.345L76.1033 237.101C72.6773 237.166 69.8857 234.532 69.8857 231.217V203.959C69.8857 200.645 72.6773 198.003 76.1033 198.057L116.034 198.688C117.56 198.715 119.014 199.34 120.084 200.428C121.154 201.515 121.756 202.979 121.759 204.505Z" fill="url(#paint41_linear_2265_109407)"/>
<g style="mix-blend-mode:soft-light">
<path d="M107.76 214.137C107.76 220.64 102.427 225.959 95.7742 226.019C89.0374 226.08 83.5244 220.742 83.5244 214.098C83.5244 207.454 89.0416 202.133 95.7714 202.217C102.425 202.299 107.76 207.636 107.76 214.137Z" fill="white"/>
</g>
<g style="mix-blend-mode:soft-light" opacity="0.35">
<path d="M107.078 213.786C106.938 209.1 103.85 205.116 99.5709 203.576C98.3515 203.138 97.0674 202.906 95.7716 202.891C89.4222 202.817 84.2236 207.834 84.2236 214.098C84.2236 220.362 89.4166 225.398 95.7716 225.344C102.048 225.291 107.084 220.273 107.084 214.137C107.087 214.019 107.082 213.903 107.078 213.786Z" fill="white"/>
</g>
<path opacity="0.7" d="M107.078 213.786C106.938 209.1 103.85 205.116 99.5709 203.576C98.3515 203.138 97.0674 202.906 95.7716 202.891C89.4222 202.817 84.2236 207.834 84.2236 214.098C84.2236 220.362 89.4166 225.398 95.7716 225.344C102.048 225.291 107.084 220.273 107.084 214.137C107.087 214.019 107.082 213.903 107.078 213.786Z" fill="white"/>
<g opacity="0.7">
<path d="M107.078 213.786C106.938 209.1 103.85 205.116 99.5708 203.576L95.7715 214.118L107.078 213.786Z" fill="url(#paint42_linear_2265_109407)"/>
</g>
<g style="mix-blend-mode:soft-light">
<path d="M108.61 228.8L82.6367 229.103V227.946L108.61 227.671V228.8Z" fill="white"/>
</g>
<g style="mix-blend-mode:soft-light">
<path d="M108.61 231.059L82.6367 231.414V230.259L108.61 229.93V231.059Z" fill="white"/>
</g>
<path d="M217.826 236.328C217.475 234.943 216.142 229.872 215.279 227.626C214.084 224.52 212.26 220.713 211.832 220.864C211.581 220.954 211.866 222.389 211.908 222.598C212.284 224.488 213.03 224.749 212.911 225.789C212.786 226.902 211.892 226.995 211.83 228.22C211.815 228.893 212.02 229.553 212.414 230.099C213.023 230.927 213.684 230.832 214.322 231.503C215.346 232.581 215.611 235.915 215.61 237.42L217.826 236.328Z" fill="url(#paint43_linear_2265_109407)"/>
<path d="M217.858 235.318L215.201 236.44C213.496 239.335 212.226 242.465 211.43 245.729C210.362 250.14 207.922 260.196 213.676 266.254C218.062 270.874 225.053 270.908 227.711 270.906C230.17 270.906 232.359 270.922 234.448 269.739C239.016 267.153 240.883 260.134 239.702 252.205C234.931 256.71 229.228 258.415 225.768 256.395C223.047 254.808 221.804 250.965 221.277 249.332C220.488 246.902 220.733 245.767 220.045 242.404C219.55 239.976 218.817 237.603 217.858 235.318Z" fill="url(#paint44_linear_2265_109407)"/>
<g style="mix-blend-mode:multiply" opacity="0.3">
<path d="M224.363 266.418C222.913 264.464 223.673 262.207 221.337 259.935C218.39 257.061 214.871 258.429 213.451 256.046C212.292 254.101 213.803 251.799 214.963 248.16C215.862 245.336 216.678 241.304 216.318 235.967L215.196 236.439C213.49 239.334 212.22 242.463 211.424 245.727C210.356 250.139 207.916 260.195 213.67 266.252C218.056 270.872 225.047 270.906 227.705 270.905C230.164 270.905 232.353 270.92 234.442 269.737C235.022 269.407 235.56 269.008 236.045 268.55C228.683 269.591 225.664 268.172 224.363 266.418Z" fill="url(#paint45_linear_2265_109407)"/>
</g>
<path d="M264.736 287.922C264.785 285.468 264.917 271.922 258.36 262.181C256.855 259.948 254.196 255.997 249.097 253.383C247.505 252.572 245.819 251.96 244.078 251.559L239.703 252.21C237.758 253.98 236.086 256.029 234.743 258.29C233.685 260.075 231.936 263.03 231.526 266.843C231.053 271.287 232.821 273.038 234.27 279.959C234.89 282.914 235.266 285.916 235.393 288.933L250.507 290.231C250.688 284.845 251.48 279.497 252.868 274.29C254.195 279.577 254.808 285.018 254.693 290.468C255.306 290.71 258.752 292.001 262.074 290.231C263.121 289.667 264.03 288.879 264.736 287.922Z" fill="url(#paint46_linear_2265_109407)"/>
<path d="M241.907 243.494C238.539 240.753 236.855 239.382 236.234 237.631C234.866 233.803 236.709 229.469 238.911 226.971C241.999 223.462 246.511 222.769 249.364 222.328C253.032 221.767 253.263 222.626 254.978 221.889C259.701 219.854 258.109 213.187 262.498 208.059C267.342 202.408 276.035 202.647 278.231 202.793C289.93 203.575 295.934 213.704 296.532 214.751C302.069 224.46 299.433 236.175 293.792 242.92C292.178 244.85 288.052 249.785 283.276 249.294C278.676 248.822 277.381 243.72 270.982 242.884C270.09 242.767 267.381 242.414 264.411 243.559C261.055 244.852 260.532 246.836 256.954 248.084C255.052 248.743 253.025 248.961 251.026 248.721C247.85 248.293 245.826 246.687 241.907 243.494Z" fill="url(#paint47_linear_2265_109407)"/>
<g style="mix-blend-mode:multiply" opacity="0.3">
<path d="M297.654 217.009C298.851 227.886 297.646 231.805 295.67 232.602C292.905 233.716 289.294 228.456 284.974 229.9C281.087 231.2 281.605 236.261 278.032 237.372C273.521 238.776 270.485 231.381 265.094 231.845C258.678 232.397 257.868 243.315 250.724 245.242C248.561 245.826 245.583 245.645 241.493 243.158L241.914 243.494C245.833 246.687 247.857 248.293 251.027 248.721C253.026 248.961 255.053 248.743 256.956 248.084C260.533 246.836 261.057 244.856 264.412 243.559C267.382 242.414 270.091 242.767 270.984 242.884C277.381 243.726 278.678 248.822 283.277 249.294C288.049 249.785 292.179 244.85 293.793 242.92C298.999 236.69 301.642 226.221 297.654 217.009Z" fill="url(#paint48_linear_2265_109407)"/>
</g>
<path d="M240.425 244.981C240.425 244.981 240.301 248.136 240.425 250.254C240.514 251.805 239.173 252.687 239.173 252.687C239.173 252.687 238.437 253.95 242.419 254.161C246.401 254.372 250.279 254.161 250.279 254.161C250.279 254.161 246.385 251.572 245.497 250.884C244.608 250.196 244.13 245.051 244.7 241.793L240.425 244.981Z" fill="url(#paint49_linear_2265_109407)"/>
<path d="M239.404 234.807C239.404 234.807 237.385 239.687 237.385 242.638C237.385 245.59 239.461 247.284 241.025 246.555C242.59 245.827 244.955 242.756 244.955 242.756C244.955 242.756 245.271 243.583 246.472 242.756C247.674 241.93 248.565 237.283 246.23 238.605C246.23 238.605 246.599 237.304 246.023 235.417C245.448 233.531 240.088 231.493 239.404 234.807Z" fill="url(#paint50_linear_2265_109407)"/>
<g style="mix-blend-mode:multiply" opacity="0.3">
<path d="M256.234 281.651C254.479 278.895 257.156 276.506 256.018 272.144C255.048 268.422 251.886 265.515 250.724 265.986C249.12 266.635 252.268 273.347 249.105 276.465C246.999 278.536 244.257 276.909 241.433 278.735C239.571 279.938 237.7 282.627 237.554 289.111L250.508 290.224C250.689 284.838 251.481 279.49 252.869 274.283C254.195 279.57 254.809 285.011 254.693 290.461C255.307 290.703 258.752 291.994 262.074 290.224C262.26 290.126 262.435 290.022 262.602 289.915C262.518 288.485 262.15 286.85 261.09 285.432C259.375 283.129 257.506 283.649 256.234 281.651Z" fill="url(#paint51_linear_2265_109407)"/>
</g>
<g style="mix-blend-mode:multiply">
<path d="M240.859 200.188L219.551 199.642C217.855 199.598 216.452 200.891 216.421 202.532L216.227 213.1C216.196 214.753 217.56 216.095 219.264 216.095H240.692C241.454 216.093 242.185 215.791 242.726 215.254C243.266 214.717 243.574 213.989 243.581 213.226L243.678 203.106C243.683 202.347 243.391 201.617 242.864 201.072C242.337 200.526 241.617 200.209 240.859 200.188Z" fill="url(#paint52_linear_2265_109407)"/>
<path d="M218.095 210.884L210.566 215.695C210.525 215.72 210.494 215.758 210.477 215.802C210.46 215.847 210.458 215.895 210.472 215.941C210.485 215.986 210.514 216.026 210.552 216.054C210.591 216.082 210.637 216.097 210.685 216.095H221.326L218.095 210.884Z" fill="url(#paint53_linear_2265_109407)"/>
</g>
<path style="mix-blend-mode:multiply" d="M273.024 206.495L266.359 201.624L266.39 187.839C266.39 186.34 265.222 185.064 263.768 184.988L232.453 183.359C232.076 183.332 231.698 183.382 231.341 183.507C230.985 183.631 230.657 183.827 230.378 184.082C230.1 184.337 229.876 184.646 229.721 184.99C229.565 185.334 229.481 185.707 229.475 186.084L229.228 203.461C229.223 204.24 229.528 204.99 230.075 205.545C230.623 206.1 231.367 206.416 232.147 206.424L259.925 206.845L263.7 206.902L272.862 207.043C272.924 207.038 272.983 207.014 273.03 206.975C273.078 206.936 273.113 206.883 273.131 206.824C273.148 206.765 273.147 206.702 273.128 206.643C273.109 206.585 273.073 206.533 273.024 206.495Z" fill="url(#paint54_linear_2265_109407)"/>
<path d="M242.999 194.644C242.998 194.881 242.949 195.116 242.855 195.333C242.761 195.551 242.624 195.747 242.453 195.911C242.281 196.075 242.079 196.203 241.857 196.287C241.635 196.371 241.399 196.409 241.162 196.4C240.675 196.383 240.213 196.178 239.875 195.826C239.537 195.475 239.349 195.005 239.352 194.518C239.353 194.28 239.403 194.045 239.498 193.826C239.592 193.608 239.73 193.411 239.903 193.247C240.075 193.084 240.279 192.956 240.502 192.873C240.725 192.79 240.962 192.753 241.2 192.763C241.685 192.783 242.143 192.99 242.479 193.341C242.814 193.692 243.001 194.159 242.999 194.644Z" fill="white"/>
<path d="M249.175 194.857C249.175 195.091 249.128 195.322 249.037 195.537C248.946 195.752 248.813 195.946 248.645 196.109C248.477 196.271 248.278 196.398 248.061 196.482C247.843 196.566 247.61 196.606 247.377 196.598C246.897 196.578 246.443 196.373 246.111 196.025C245.779 195.677 245.596 195.215 245.599 194.734C245.599 194.5 245.646 194.268 245.738 194.053C245.829 193.837 245.964 193.643 246.133 193.48C246.301 193.318 246.501 193.192 246.72 193.108C246.939 193.025 247.172 192.987 247.406 192.996C247.884 193.019 248.335 193.225 248.664 193.572C248.994 193.918 249.177 194.379 249.175 194.857Z" fill="white"/>
<path d="M255.22 195.068C255.221 195.298 255.177 195.526 255.089 195.738C255.001 195.95 254.871 196.143 254.707 196.304C254.542 196.465 254.348 196.591 254.133 196.674C253.919 196.758 253.691 196.798 253.461 196.791C252.987 196.771 252.54 196.567 252.214 196.223C251.889 195.879 251.709 195.421 251.715 194.947C251.713 194.717 251.758 194.488 251.847 194.276C251.936 194.063 252.067 193.871 252.232 193.71C252.397 193.549 252.593 193.423 252.808 193.34C253.023 193.257 253.253 193.219 253.483 193.227C253.955 193.249 254.399 193.454 254.723 193.797C255.046 194.141 255.224 194.596 255.22 195.068Z" fill="white"/>
<g opacity="0.6">
<path d="M210.845 307.3L202.985 308.813C201.395 308.971 199.29 307.261 199.29 305.808V303.032C199.29 301.58 200.584 300.287 202.174 300.145L210.845 299.368C212.397 299.227 213.652 300.274 213.652 301.702V304.434C213.653 305.866 212.403 307.147 210.845 307.3Z" fill="url(#paint55_linear_2265_109407)"/>
<path d="M227.807 305.63L220.249 307.094C218.721 307.244 216.705 305.57 216.705 304.147V297.184C216.705 295.761 217.947 294.503 219.476 294.377L227.807 293.675C229.3 293.549 231.902 294.703 231.902 296.102L230.499 302.839C230.509 304.23 229.3 305.483 227.807 305.63Z" fill="url(#paint56_linear_2265_109407)"/>
<path d="M244.122 304.025L237.134 305.5C235.666 305.64 233.447 303.945 233.447 302.552V286.272C233.447 284.877 234.642 283.658 236.114 283.552L244.127 282.966C245.562 282.861 248.381 284.013 248.381 285.386L246.723 301.293C246.712 302.656 245.551 303.883 244.122 304.025Z" fill="url(#paint57_linear_2265_109407)"/>
<path d="M259.808 302.479L253.385 303.952C251.972 304.092 249.538 302.383 249.538 301.014V275.751C249.538 274.383 250.688 273.202 252.101 273.115L259.812 272.64C261.194 272.554 263.742 273.654 263.742 275.002L262.307 299.789C262.307 301.142 261.19 302.343 259.808 302.479Z" fill="url(#paint58_linear_2265_109407)"/>
<path d="M279.216 263.674L273.499 249.122C273.378 248.874 271.473 248.154 271.23 248.16C271.099 248.162 270.971 248.201 270.86 248.272C270.75 248.344 270.662 248.445 270.606 248.564L263.069 264.515C263.004 264.642 262.983 264.786 263.008 264.926C263.034 265.067 263.104 265.195 263.209 265.291C263.332 265.399 265.024 266.058 265.024 266.058V300.865C265.024 301.473 266.896 302.6 267.514 302.54L276.235 300.856C276.53 300.823 276.804 300.684 277.004 300.464C277.204 300.245 277.318 299.961 277.324 299.664V264.717L278.614 264.648C278.726 264.641 278.835 264.607 278.931 264.55C279.027 264.492 279.108 264.412 279.167 264.317C279.226 264.221 279.261 264.113 279.27 264.001C279.278 263.889 279.26 263.777 279.216 263.674Z" fill="url(#paint59_linear_2265_109407)"/>
<path d="M212.576 308.008L203.905 308.861C202.315 309.017 201.021 307.968 201.021 306.516V303.74C201.021 302.287 202.315 300.994 203.905 300.853L212.576 300.079C214.129 299.939 215.383 300.986 215.383 302.413V305.146C215.384 306.573 214.129 307.855 212.576 308.008Z" fill="url(#paint60_linear_2265_109407)"/>
<path d="M229.539 306.338L221.206 307.157C219.679 307.307 218.436 306.277 218.436 304.854V297.891C218.436 296.468 219.679 295.211 221.206 295.084L229.539 294.383C231.031 294.256 232.238 295.289 232.238 296.689V303.54C232.238 304.937 231.031 306.19 229.539 306.338Z" fill="url(#paint61_linear_2265_109407)"/>
<path d="M245.847 304.732L237.835 305.521C236.365 305.661 235.168 304.652 235.168 303.257V286.969C235.168 285.574 236.362 284.356 237.835 284.249L245.847 283.664C247.283 283.559 248.442 284.588 248.442 285.96V301.991C248.442 303.364 247.283 304.59 245.847 304.732Z" fill="url(#paint62_linear_2265_109407)"/>
<path d="M261.538 303.187L253.827 303.946C252.414 304.086 251.265 303.09 251.265 301.721V276.465C251.265 275.097 252.414 273.917 253.827 273.83L261.538 273.354C262.921 273.268 264.038 274.291 264.038 275.639V300.502C264.038 301.849 262.921 303.052 261.538 303.187Z" fill="url(#paint63_linear_2265_109407)"/>
<path d="M280.947 264.381L273.566 249.223C273.32 248.72 272.584 248.743 272.337 249.264L264.794 265.219C264.742 265.322 264.719 265.436 264.726 265.55C264.733 265.665 264.77 265.776 264.834 265.871C264.897 265.967 264.985 266.043 265.088 266.094C265.191 266.144 265.306 266.166 265.42 266.158L266.755 266.087V301.573C266.752 301.715 266.781 301.856 266.838 301.987C266.895 302.117 266.98 302.234 267.087 302.328C267.194 302.422 267.32 302.492 267.456 302.533C267.593 302.573 267.737 302.584 267.878 302.564L277.97 301.57C278.265 301.537 278.538 301.398 278.739 301.179C278.939 300.96 279.053 300.675 279.059 300.378V265.431L280.349 265.362C280.462 265.355 280.571 265.321 280.667 265.263C280.764 265.204 280.845 265.124 280.903 265.027C280.962 264.931 280.996 264.822 281.004 264.71C281.012 264.597 280.992 264.485 280.947 264.381Z" fill="url(#paint64_linear_2265_109407)"/>
</g>
<path d="M206.614 318.65C206.651 318.444 207.315 318.258 207.645 318.534C207.809 318.674 207.926 318.955 207.828 319.073C207.792 319.119 207.934 319.199 207.798 319.201C207.35 319.206 206.577 318.854 206.614 318.65Z" fill="url(#paint65_linear_2265_109407)"/>
<path d="M207.341 318.651L208.031 318.686C207.792 318.251 208.079 317.069 208.079 317.069L207.335 317.091C207.335 317.091 207.353 317.434 207.398 317.943C207.405 318.18 207.386 318.418 207.341 318.651Z" fill="url(#paint66_linear_2265_109407)"/>
<path d="M207.25 318.641C207.25 318.641 208.073 318.451 208.163 318.614C208.252 318.777 208.321 319.215 207.798 319.201C207.274 319.187 207.21 318.78 207.25 318.641Z" fill="url(#paint67_linear_2265_109407)"/>
<path d="M197.88 320.14C197.946 319.94 198.631 319.849 198.917 320.169C199.058 320.326 199.134 320.618 199.023 320.731C198.982 320.77 199.11 320.871 198.976 320.853C198.531 320.798 197.814 320.34 197.88 320.14Z" fill="url(#paint68_linear_2265_109407)"/>
<path d="M198.689 320.335L199.367 320.468C199.193 320.003 199.648 318.875 199.648 318.875L198.907 318.789C198.907 318.789 198.876 319.132 198.848 319.643C198.821 319.879 198.768 320.111 198.689 320.335Z" fill="url(#paint69_linear_2265_109407)"/>
<path d="M198.508 320.224C198.508 320.224 199.35 320.151 199.415 320.325C199.48 320.499 199.488 320.942 198.973 320.855C198.458 320.768 198.447 320.354 198.508 320.224Z" fill="url(#paint70_linear_2265_109407)"/>
<path d="M204.739 296.477C204.926 299.634 205.19 302.912 205.531 306.312C205.934 310.242 206.423 314.008 206.974 317.582C207.397 317.718 207.853 317.718 208.276 317.582C208.276 317.582 209.069 316.284 209.68 312.837C210.068 310.625 210.101 310.652 210.101 310.266C210.122 308.319 209.44 307.757 209.309 306.016C209.188 304.406 209.701 303.924 210.011 302.112C210.247 300.718 210.335 298.687 209.59 296.032L204.739 296.477Z" fill="url(#paint71_linear_2265_109407)"/>
<path d="M201.341 296.378C199.134 303.827 198.251 311.606 198.734 319.361L199.619 319.608C201.333 317.814 201.945 316.166 202.179 314.962C202.525 313.181 202.004 312.576 202.46 310.564C202.564 310.1 202.711 309.602 204.415 306.263C206.04 303.076 206.38 302.614 206.649 301.469C206.96 300.14 207.008 298.763 206.79 297.416L201.341 296.378Z" fill="url(#paint72_linear_2265_109407)"/>
<path d="M194.031 289.625L191.123 282.806C191.088 282.726 191.072 282.64 191.074 282.553C191.077 282.466 191.099 282.381 191.138 282.303C191.177 282.225 191.232 282.157 191.3 282.103C191.369 282.049 191.448 282.01 191.532 281.99L196.866 280.696C197.006 280.66 197.154 280.677 197.283 280.742C197.412 280.807 197.513 280.917 197.567 281.051L200.243 287.601C200.274 287.678 200.289 287.761 200.287 287.844C200.285 287.927 200.265 288.009 200.229 288.084C200.194 288.159 200.143 288.226 200.08 288.28C200.017 288.335 199.943 288.375 199.864 288.399L194.758 289.964C194.616 290.008 194.463 289.997 194.329 289.934C194.195 289.871 194.088 289.761 194.031 289.625Z" fill="#26264F"/>
<path d="M194.157 289.298L191.44 282.933C191.408 282.858 191.393 282.777 191.396 282.696C191.398 282.615 191.419 282.535 191.455 282.463C191.492 282.39 191.543 282.326 191.607 282.276C191.67 282.225 191.744 282.189 191.823 282.169L196.8 280.961C196.93 280.93 197.067 280.946 197.186 281.007C197.305 281.067 197.398 281.169 197.449 281.292L199.949 287.41C199.978 287.482 199.992 287.559 199.99 287.637C199.987 287.715 199.969 287.791 199.936 287.861C199.902 287.931 199.855 287.994 199.796 288.045C199.737 288.096 199.668 288.134 199.594 288.157L194.835 289.613C194.703 289.653 194.561 289.643 194.436 289.585C194.311 289.527 194.211 289.424 194.157 289.298Z" fill="url(#paint73_linear_2265_109407)"/>
<path d="M192.485 287.427L192.398 286.624L191.935 285.741C191.872 285.621 191.839 285.488 191.84 285.352V284.477L192.401 285.768C192.559 285.622 192.728 285.487 192.907 285.366C193.047 285.296 193.03 285.576 192.925 285.681C192.819 285.786 192.977 286.641 192.873 286.728L192.907 287.251L192.485 287.427Z" fill="url(#paint74_linear_2265_109407)"/>
<path d="M196.92 282.312C197.353 281.25 198.287 280.639 198.769 280.322C199.913 279.573 200.646 279.709 203.273 279.31C206.782 278.777 207.193 278.272 208.371 278.682C209.915 279.219 210.723 280.621 211.094 281.264C212.959 284.506 210.778 286.154 211.338 292.611C211.566 295.247 212.153 297.539 210.744 298.895C210.448 299.176 210.115 299.33 209.453 299.627C206.821 300.812 204.462 300.61 203.029 300.47C201.451 300.314 200.654 300.224 200.236 299.667C199.568 298.777 200.256 297.646 200.376 295.686C200.462 294.283 200.142 293.16 199.503 290.94C198.017 285.754 196.087 284.35 196.92 282.312Z" fill="url(#paint75_linear_2265_109407)"/>
<path d="M202.78 277.399C202.62 276.837 202.899 276.305 202.96 276.192C203.218 275.717 203.282 275.653 203.406 275.57L203.576 275.465L203.597 275.458C203.781 275.419 203.97 275.408 204.158 275.424C204.4 275.475 204.658 276.458 204.579 277.849L204.609 278.009C204.647 278.23 204.677 278.444 204.7 278.655C204.722 278.865 205.009 278.851 205.211 278.839C206.03 278.785 206.432 278.856 206.474 278.979C206.54 279.208 205.566 279.962 204.369 280.126C202.756 280.137 201.445 279.966 201.586 279.712C201.649 279.599 202.898 279.272 203.249 278.948C203.57 278.652 203.545 278.346 203.571 278.127C203.462 278.075 202.896 277.817 202.78 277.399Z" fill="url(#paint76_linear_2265_109407)"/>
<path d="M203.076 275.07C203.076 275.501 203.281 275.962 203.384 276.035C203.445 276.083 203.497 276.141 203.539 276.206C203.55 276.221 203.559 276.238 203.565 276.256C203.659 276.527 203.228 276.847 203.311 276.969C203.371 277.058 203.664 276.94 203.699 277.016C203.734 277.091 203.489 277.236 203.525 277.322C203.562 277.407 203.704 277.322 203.806 277.425C203.852 277.476 203.838 277.515 203.889 277.665C203.914 277.746 203.947 277.823 203.987 277.897C204.136 278.15 204.558 278.242 204.638 278.141C204.661 278.113 204.638 278.089 204.665 278.001C204.684 277.935 204.711 277.871 204.748 277.813C204.835 277.672 205.045 277.563 205.257 277.41C205.652 277.129 205.758 276.885 205.791 276.804C205.799 276.782 205.807 276.76 205.813 276.738C205.924 276.387 205.91 276.009 205.774 275.667C205.535 275.187 204.995 275.414 204.554 274.938C204.045 274.39 204.348 273.639 204.071 273.556C203.76 273.456 203.073 274.273 203.076 275.07Z" fill="#26264F"/>
<path d="M203.465 276.868C203.57 276.728 203.757 276.858 203.757 277.047C203.757 277.235 203.577 277.43 203.4 277.392C203.224 277.354 203.323 277.063 203.465 276.868Z" fill="url(#paint77_linear_2265_109407)"/>
<path d="M203.551 276.554L203.307 276.872C203.307 276.872 203.043 277.263 202.886 277.049C202.759 276.874 202.727 276.878 202.719 276.885C202.719 276.885 202.737 276.798 202.755 276.721C202.66 276.858 202.59 277.01 202.546 277.171C202.493 277.369 202.437 277.583 202.546 277.786C202.625 277.923 202.754 278.024 202.905 278.067C203.065 278.074 203.224 278.058 203.378 278.021C203.378 278.021 202.957 277.716 202.957 277.644C202.939 277.448 203.211 277.343 203.414 276.943C203.476 276.82 203.522 276.689 203.551 276.554Z" fill="#26264F"/>
<path style="mix-blend-mode:multiply" opacity="0.3" d="M204.39 298.616C203.925 297.691 205.063 296.463 204.319 295.055C203.689 293.858 202.543 294.126 202.016 293.03C201.379 291.705 202.763 290.715 202.718 288.701C202.659 286.293 200.586 283.882 199.367 284.092C198.578 284.232 198.477 285.407 197.921 286.696C198.558 288.066 199.088 289.483 199.507 290.936C200.145 293.163 200.465 294.277 200.38 295.682C200.259 297.647 199.571 298.77 200.239 299.663C200.661 300.224 201.455 300.31 203.032 300.465C204.465 300.606 206.822 300.812 209.456 299.623C209.789 299.473 210.039 299.361 210.242 299.251C206.127 299.872 204.757 299.348 204.39 298.616Z" fill="url(#paint78_linear_2265_109407)"/>
<path d="M192.333 287.27L193.1 286.938C193.534 287.38 194.083 287.81 194.55 287.671C195.242 287.462 195.068 286.189 195.912 283.953C196.866 281.418 197.949 280.767 198.494 280.531C198.799 280.399 199.009 280.312 199.263 280.374C200.427 280.655 200.807 283.691 200.484 285.96C200.3 287.239 199.94 289.75 197.883 290.936C197.592 291.104 195.983 292.035 194.393 291.302C193.034 290.676 192.192 289.069 192.333 287.27Z" fill="url(#paint79_linear_2265_109407)"/>
<path d="M182.079 323.632C182.324 324.044 182.281 324.234 182.236 324.319C182.096 324.569 181.712 324.375 180.757 324.57C180.56 324.617 180.356 324.627 180.156 324.6C179.92 324.565 179.637 324.46 179.644 324.402C179.644 324.378 179.686 324.366 179.701 324.361C179.965 324.281 181.6 323.627 181.6 323.627L182.079 323.632Z" fill="url(#paint80_linear_2265_109407)"/>
<path d="M182.127 322.677L182.059 323.65C182.059 323.65 181.67 323.975 181.532 323.63C181.433 323.383 181.378 322.697 181.378 322.697L182.127 322.677Z" fill="url(#paint81_linear_2265_109407)"/>
<path d="M177.298 323.559L177.795 324.631L178.376 324.488L178.154 323.476L177.298 323.559Z" fill="url(#paint82_linear_2265_109407)"/>
<path d="M178.03 325.225C178.286 324.862 178.543 324.872 178.574 324.635C178.581 324.537 178.558 324.439 178.508 324.355C178.458 324.271 178.383 324.204 178.293 324.163C178.046 324.064 177.776 324.274 177.714 324.322C177.293 324.645 177.456 325.083 177.056 325.305C176.929 325.364 176.814 325.446 176.717 325.546C176.663 325.606 176.528 325.756 176.577 325.849C176.626 325.942 176.887 325.929 177.138 325.905C177.437 325.876 177.586 325.86 177.722 325.765C177.902 325.626 177.832 325.504 178.03 325.225Z" fill="url(#paint83_linear_2265_109407)"/>
<path d="M183.359 299.448C183.428 301.372 183.321 303.298 183.042 305.202C182.79 306.907 182.601 307.211 182.562 308.381C182.477 310.927 183.315 311.239 183.642 314.092C183.879 316.34 183.677 318.612 183.049 320.782C182.855 321.474 182.621 322.153 182.347 322.816C182.066 323.087 181.624 323.018 181.151 322.956C180.802 320.1 180.42 317.417 180.07 314.562C179.248 310.284 178.426 306.007 177.604 301.731L183.359 299.448Z" fill="url(#paint84_linear_2265_109407)"/>
<path style="mix-blend-mode:multiply" opacity="0.3" d="M181.156 322.958C180.807 320.102 180.425 317.418 180.075 314.564C179.253 310.286 178.431 306.009 177.609 301.733L183.364 299.448C183.364 299.597 183.364 299.74 183.374 299.886C180.777 302.439 180.357 304.36 180.463 305.64C180.593 307.199 181.494 307.921 181.468 310.196C181.449 311.821 180.979 312.137 181.07 313.598C181.187 315.479 182.053 316.486 182.52 317.549C182.967 318.576 183.194 320.055 182.59 322.218C182.508 322.443 182.429 322.639 182.357 322.816C182.078 323.087 181.629 323.024 181.156 322.958Z" fill="url(#paint85_linear_2265_109407)"/>
<path d="M180.029 301.818C179.081 303.64 178.301 305.544 177.701 307.508C177.435 308.311 177.298 309.15 177.292 309.995C177.301 310.957 177.489 311.909 177.847 312.802C178.245 313.697 178.554 314.628 178.769 315.584C179.539 319.02 178.909 321.974 178.374 323.682L177.355 324.134C176.104 321.213 175.097 318.193 174.344 315.105C173.834 313.024 173.444 311.392 173.311 309.295C173.17 307.084 173.268 303.567 174.819 299.277L180.029 301.818Z" fill="url(#paint86_linear_2265_109407)"/>
<path d="M178.041 282.729C175.854 283.246 174.195 283.745 173.516 284.95C172.798 286.221 174.117 287.063 174.626 289.722C175.405 293.792 173.139 295.476 174.075 299.571C174.323 300.644 174.735 301.672 175.296 302.62C176.358 303.387 177.545 303.964 178.805 304.325C181.095 304.971 182.173 304.446 185.199 304.432C190.149 304.408 190.976 305.793 193.15 304.775C195.346 303.747 196.828 301.243 196.287 300.246C195.962 299.65 195.084 300.089 193.743 299.414C192.014 298.545 192.212 297.199 190.796 296.145C188.75 294.63 186.983 296.397 185.233 295.077C183.482 293.758 183.043 290.256 183.63 288.129C184.012 286.739 183.929 285.258 184.191 283.841C184.223 283.669 184.205 283.492 184.138 283.331C183.812 282.545 182.334 282.489 181.219 282.446C180.152 282.405 179.084 282.501 178.041 282.729Z" fill="url(#paint87_linear_2265_109407)"/>
<path style="mix-blend-mode:multiply" opacity="0.3" d="M192.795 303.236C192.083 302.823 192.374 301.511 191.32 300.888C190.337 300.311 189.661 301.188 188.25 300.85C186.442 300.415 186.426 298.701 184.695 298.26C183.447 297.945 183.127 298.747 181.366 298.891C179.604 299.034 177.254 298.45 175.676 296.674C175.076 295.994 174.63 295.193 174.368 294.325C173.992 295.869 173.571 297.376 174.073 299.574C174.322 300.647 174.734 301.675 175.294 302.623C176.356 303.39 177.544 303.967 178.803 304.328C181.094 304.973 182.172 304.448 185.197 304.434C190.148 304.411 190.974 305.796 193.148 304.778C194.552 304.12 195.661 302.863 196.139 301.778C194.28 303.317 193.315 303.536 192.795 303.236Z" fill="url(#paint88_linear_2265_109407)"/>
<path d="M176.526 278.982C176.526 278.982 175.989 280.164 176 280.968C176.011 281.772 176.912 281.658 176.912 281.658V282.166C176.911 282.379 176.849 282.587 176.732 282.764C176.616 282.942 176.45 283.082 176.255 283.167L175.907 283.322C175.907 283.322 178.269 283.675 179.488 282.697L179.118 282.684C178.865 282.675 178.623 282.578 178.432 282.411C178.242 282.243 178.115 282.015 178.073 281.765L178.038 281.549C178.038 281.549 178.285 279.017 176.526 278.982Z" fill="url(#paint89_linear_2265_109407)"/>
<path d="M173.881 291.943L170.466 285.754C170.446 285.716 170.414 285.687 170.375 285.669C170.336 285.651 170.293 285.646 170.251 285.656L165.27 286.711C165.239 286.718 165.211 286.731 165.186 286.751C165.162 286.771 165.143 286.796 165.13 286.825C165.117 286.854 165.112 286.885 165.114 286.917C165.116 286.948 165.125 286.979 165.141 287.006L169.116 293.665C169.139 293.704 169.175 293.734 169.217 293.749C169.26 293.765 169.306 293.765 169.349 293.751L173.738 292.269L173.881 291.943Z" fill="url(#paint90_linear_2265_109407)"/>
<path d="M173.025 291.227L170.259 286.22C170.242 286.19 170.217 286.166 170.185 286.152C170.154 286.137 170.119 286.134 170.086 286.141L166.052 286.995C166.027 287 166.004 287.011 165.984 287.028C165.965 287.044 165.949 287.065 165.939 287.088C165.929 287.111 165.924 287.137 165.926 287.162C165.928 287.188 165.935 287.213 165.948 287.235L169.165 292.631C169.184 292.663 169.213 292.687 169.248 292.7C169.282 292.713 169.32 292.713 169.355 292.701L172.908 291.501L173.025 291.227Z" fill="url(#paint91_linear_2265_109407)"/>
<path d="M169.411 286.263L169.192 285.862C169.177 285.834 169.154 285.812 169.126 285.799C169.098 285.786 169.066 285.782 169.036 285.789L166.961 286.21C166.938 286.213 166.917 286.223 166.898 286.237C166.879 286.251 166.864 286.269 166.855 286.29C166.845 286.311 166.841 286.335 166.842 286.358C166.844 286.381 166.851 286.404 166.863 286.423L167.107 286.86C167.122 286.888 167.146 286.91 167.174 286.923C167.203 286.936 167.235 286.939 167.266 286.931L169.315 286.475C169.338 286.471 169.359 286.462 169.377 286.448C169.395 286.434 169.41 286.416 169.419 286.395C169.428 286.374 169.433 286.351 169.431 286.328C169.43 286.305 169.423 286.283 169.411 286.263Z" fill="url(#paint92_linear_2265_109407)"/>
<path d="M166.672 287.908H166.681L170.33 287.126C170.352 287.122 170.37 287.109 170.382 287.09C170.394 287.072 170.398 287.049 170.394 287.028C170.389 287.006 170.376 286.987 170.358 286.975C170.339 286.963 170.316 286.959 170.295 286.964L166.646 287.745C166.635 287.747 166.625 287.752 166.615 287.758C166.606 287.764 166.599 287.772 166.592 287.781C166.586 287.79 166.582 287.8 166.58 287.811C166.578 287.822 166.579 287.833 166.581 287.844C166.586 287.864 166.597 287.882 166.614 287.894C166.631 287.906 166.652 287.911 166.672 287.908Z" fill="url(#paint93_linear_2265_109407)"/>
<path d="M166.892 288.266H166.902L170.533 287.451C170.554 287.445 170.572 287.431 170.583 287.413C170.594 287.394 170.598 287.372 170.593 287.351C170.588 287.33 170.576 287.312 170.558 287.3C170.54 287.288 170.518 287.283 170.497 287.286L166.866 288.103C166.844 288.108 166.826 288.122 166.814 288.14C166.802 288.159 166.798 288.181 166.803 288.203C166.808 288.222 166.82 288.239 166.836 288.251C166.853 288.262 166.872 288.268 166.892 288.266Z" fill="url(#paint94_linear_2265_109407)"/>
<path d="M168.789 288.701H168.802L170.778 288.2C170.798 288.194 170.816 288.179 170.826 288.161C170.836 288.142 170.839 288.12 170.834 288.099C170.829 288.078 170.815 288.06 170.797 288.049C170.779 288.037 170.757 288.033 170.736 288.037L168.761 288.538C168.742 288.545 168.726 288.558 168.715 288.575C168.705 288.592 168.701 288.613 168.704 288.633C168.708 288.653 168.718 288.671 168.734 288.683C168.749 288.696 168.769 288.703 168.789 288.703V288.701Z" fill="url(#paint95_linear_2265_109407)"/>
<path d="M168.144 292.04C168.144 292.04 167.276 291.552 167.148 291.166C167.055 290.798 166.999 290.422 166.981 290.043L167.543 291.045C167.624 291.002 167.694 290.94 167.745 290.864C167.797 290.788 167.829 290.7 167.839 290.609C167.909 290.256 168.104 290.557 168.058 290.822C168.012 291.087 168.144 292.04 168.144 292.04Z" fill="url(#paint96_linear_2265_109407)"/>
<path d="M173.875 284.529C173.266 284.968 172.742 285.515 172.331 286.143C170.866 288.405 171.696 290.618 170.404 291.532C170.035 291.794 169.368 292.037 168.099 291.705L167.649 291.995C167.649 291.995 167.318 294.976 170.887 294.788C174.456 294.6 175.862 290.025 175.862 290.025L173.875 284.529Z" fill="url(#paint97_linear_2265_109407)"/>
<path d="M176.962 280.096C177.081 280.079 177.172 279.921 177.256 279.956C177.341 279.991 177.351 280.223 177.285 280.377C177.243 280.478 177.172 280.565 177.081 280.625C177.221 280.793 177.323 280.99 177.379 281.201C177.519 281.774 177.238 282.259 177.133 282.54C176.632 283.803 177.651 285.693 178.698 286.61C179.55 287.359 179.903 287.014 180.423 287.637C181.432 288.849 180.233 290.322 180.82 291.999C181.714 294.551 185.861 295.069 186.034 295.087L186.216 295.107C188.075 295.285 190.889 295.554 192.76 293.924C194.163 292.704 194.709 290.696 194.491 288.971C194.434 288.517 194.188 286.798 192.692 285.473C192.455 285.264 191.049 284.022 189.259 284.117C188.31 284.168 188.136 284.513 187.402 284.352C186.393 284.13 185.727 283.267 185.313 282.731C184.55 281.748 184.821 281.507 184.288 281.031C183.244 280.101 182.138 280.951 181.033 280.141C179.929 279.331 180.497 278.133 179.452 277.448C178.374 276.746 176.419 277.134 176.055 278.077C175.742 278.902 176.594 280.151 176.962 280.096Z" fill="url(#paint98_linear_2265_109407)"/>
</g>
<rect x="-2.62818" y="1.43529" width="353.192" height="506.129" stroke="url(#paint99_linear_2265_109407)" stroke-width="2.87059"/>
</g>
</g>
<defs>
<filter id="filter0_b_2265_109407" x="-119.824" y="-114.824" width="586.647" height="738.647" filterUnits="userSpaceOnUse" color-interpolation-filters="sRGB">
<feFlood flood-opacity="0" result="BackgroundImageFix"/>
<feGaussianBlur in="BackgroundImage" stdDeviation="57.4118"/>
<feComposite in2="SourceAlpha" operator="in" result="effect1_backgroundBlur_2265_109407"/>
<feBlend mode="normal" in="SourceGraphic" in2="effect1_backgroundBlur_2265_109407" result="shape"/>
</filter>
<filter id="filter1_b_2265_109407" x="-118.887" y="-114.824" width="585.711" height="738.647" filterUnits="userSpaceOnUse" color-interpolation-filters="sRGB">
<feFlood flood-opacity="0" result="BackgroundImageFix"/>
<feGaussianBlur in="BackgroundImage" stdDeviation="57.4118"/>
<feComposite in2="SourceAlpha" operator="in" result="effect1_backgroundBlur_2265_109407"/>
<feBlend mode="normal" in="SourceGraphic" in2="effect1_backgroundBlur_2265_109407" result="shape"/>
</filter>
<linearGradient id="paint0_linear_2265_109407" x1="178.5" y1="0" x2="178.5" y2="509" gradientUnits="userSpaceOnUse">
<stop stop-color="#D9EDFF"/>
<stop offset="1" stop-color="#D9EDFF" stop-opacity="0"/>
</linearGradient>
<linearGradient id="paint1_linear_2265_109407" x1="173.968" y1="0" x2="173.968" y2="509" gradientUnits="userSpaceOnUse">
<stop stop-color="#D9EDFF"/>
<stop offset="1" stop-color="#D9EDFF" stop-opacity="0"/>
</linearGradient>
<linearGradient id="paint2_linear_2265_109407" x1="170.841" y1="277.162" x2="170.841" y2="334.051" gradientUnits="userSpaceOnUse">
<stop stop-color="#CCE7FF"/>
<stop offset="1" stop-color="#CCE7FF" stop-opacity="0"/>
</linearGradient>
<linearGradient id="paint3_linear_2265_109407" x1="70.5195" y1="193.483" x2="107.732" y2="193.483" gradientUnits="userSpaceOnUse">
<stop stop-color="#AA80F9"/>
<stop offset="1" stop-color="#6165D7"/>
</linearGradient>
<linearGradient id="paint4_linear_2265_109407" x1="101.909" y1="213.065" x2="136.56" y2="213.065" gradientUnits="userSpaceOnUse">
<stop stop-color="#AA80F9"/>
<stop offset="1" stop-color="#6165D7"/>
</linearGradient>
<linearGradient id="paint5_linear_2265_109407" x1="151.209" y1="202.765" x2="185.235" y2="202.765" gradientUnits="userSpaceOnUse">
<stop stop-color="#AA80F9"/>
<stop offset="1" stop-color="#6165D7"/>
</linearGradient>
<linearGradient id="paint6_linear_2265_109407" x1="35" y1="257.831" x2="72.6967" y2="257.831" gradientUnits="userSpaceOnUse">
<stop stop-color="#AA80F9"/>
<stop offset="1" stop-color="#6165D7"/>
</linearGradient>
<linearGradient id="paint7_linear_2265_109407" x1="66.7979" y1="277.167" x2="101.897" y2="277.167" gradientUnits="userSpaceOnUse">
<stop stop-color="#FF9085"/>
<stop offset="1" stop-color="#FB6FBB"/>
</linearGradient>
<linearGradient id="paint8_linear_2265_109407" x1="66.7979" y1="238.598" x2="101.897" y2="238.598" gradientUnits="userSpaceOnUse">
<stop stop-color="#AA80F9"/>
<stop offset="1" stop-color="#6165D7"/>
</linearGradient>
<linearGradient id="paint9_linear_2265_109407" x1="234.481" y1="222.819" x2="200.884" y2="275.912" gradientUnits="userSpaceOnUse">
<stop stop-color="#AA80F9"/>
<stop offset="1" stop-color="#6165D7"/>
</linearGradient>
<linearGradient id="paint10_linear_2265_109407" x1="213.813" y1="267.529" x2="241.896" y2="267.529" gradientUnits="userSpaceOnUse">
<stop stop-color="#AA80F9"/>
<stop offset="1" stop-color="#6165D7"/>
</linearGradient>
<linearGradient id="paint11_linear_2265_109407" x1="237.481" y1="217.263" x2="263.864" y2="217.263" gradientUnits="userSpaceOnUse">
<stop stop-color="#FF9085"/>
<stop offset="1" stop-color="#FB6FBB"/>
</linearGradient>
<linearGradient id="paint12_linear_2265_109407" x1="259.78" y1="225.055" x2="294.01" y2="225.055" gradientUnits="userSpaceOnUse">
<stop stop-color="#FF9085"/>
<stop offset="1" stop-color="#FB6FBB"/>
</linearGradient>
<linearGradient id="paint13_linear_2265_109407" x1="237.481" y1="250.005" x2="263.864" y2="250.005" gradientUnits="userSpaceOnUse">
<stop stop-color="#FF9085"/>
<stop offset="1" stop-color="#FB6FBB"/>
</linearGradient>
<linearGradient id="paint14_linear_2265_109407" x1="306.082" y1="180.3" x2="239.54" y2="222.626" gradientUnits="userSpaceOnUse">
<stop stop-color="#AA80F9"/>
<stop offset="1" stop-color="#6165D7"/>
</linearGradient>
<linearGradient id="paint15_linear_2265_109407" x1="297.793" y1="198.189" x2="258.76" y2="223.017" gradientUnits="userSpaceOnUse">
<stop stop-color="#AA80F9"/>
<stop offset="1" stop-color="#6165D7"/>
</linearGradient>
<linearGradient id="paint16_linear_2265_109407" x1="259.713" y1="249.712" x2="313" y2="249.712" gradientUnits="userSpaceOnUse">
<stop stop-color="#AA80F9"/>
<stop offset="1" stop-color="#6165D7"/>
</linearGradient>
<linearGradient id="paint17_linear_2265_109407" x1="265.149" y1="258.435" x2="228.462" y2="259.169" gradientUnits="userSpaceOnUse">
<stop stop-color="#B7C0CE"/>
<stop offset="1" stop-color="#EBEFF2"/>
</linearGradient>
<linearGradient id="paint18_linear_2265_109407" x1="249.613" y1="267.366" x2="244.403" y2="253.766" gradientUnits="userSpaceOnUse">
<stop offset="0.49" stop-color="#EBEFF2"/>
<stop offset="1" stop-color="white"/>
</linearGradient>
<linearGradient id="paint19_linear_2265_109407" x1="245.345" y1="259.324" x2="264.795" y2="361.919" gradientUnits="userSpaceOnUse">
<stop stop-color="#FFC444"/>
<stop offset="1" stop-color="#F36F56"/>
</linearGradient>
<linearGradient id="paint20_linear_2265_109407" x1="246.799" y1="228.738" x2="279.097" y2="311.104" gradientUnits="userSpaceOnUse">
<stop stop-color="#FFC444"/>
<stop offset="1" stop-color="#F36F56"/>
</linearGradient>
<linearGradient id="paint21_linear_2265_109407" x1="198.027" y1="232.563" x2="174.69" y2="274.861" gradientUnits="userSpaceOnUse">
<stop stop-color="#FFC444"/>
<stop offset="1" stop-color="#F36F56"/>
</linearGradient>
<linearGradient id="paint22_linear_2265_109407" x1="181.624" y1="260.548" x2="159.583" y2="307.114" gradientUnits="userSpaceOnUse">
<stop stop-color="#AA80F9"/>
<stop offset="1" stop-color="#6165D7"/>
</linearGradient>
<linearGradient id="paint23_linear_2265_109407" x1="152.355" y1="294.491" x2="174.396" y2="341.056" gradientUnits="userSpaceOnUse">
<stop stop-color="#AA80F9"/>
<stop offset="1" stop-color="#6165D7"/>
</linearGradient>
<linearGradient id="paint24_linear_2265_109407" x1="147.521" y1="255.372" x2="121.749" y2="212.296" gradientUnits="userSpaceOnUse">
<stop stop-color="#FFC444"/>
<stop offset="1" stop-color="#F36F56"/>
</linearGradient>
<linearGradient id="paint25_linear_2265_109407" x1="149.279" y1="238.688" x2="129.483" y2="202.831" gradientUnits="userSpaceOnUse">
<stop stop-color="#FFC444"/>
<stop offset="1" stop-color="#F36F56"/>
</linearGradient>
<linearGradient id="paint26_linear_2265_109407" x1="137.811" y1="214.452" x2="149.015" y2="234.247" gradientUnits="userSpaceOnUse">
<stop stop-color="#444B8C"/>
<stop offset="1" stop-color="#26264F"/>
</linearGradient>
<linearGradient id="paint27_linear_2265_109407" x1="138.108" y1="327.47" x2="94.0889" y2="212.636" gradientUnits="userSpaceOnUse">
<stop stop-color="#AA80F9"/>
<stop offset="1" stop-color="#6165D7"/>
</linearGradient>
<linearGradient id="paint28_linear_2265_109407" x1="127.37" y1="306.317" x2="149.411" y2="352.882" gradientUnits="userSpaceOnUse">
<stop stop-color="#AA80F9"/>
<stop offset="1" stop-color="#6165D7"/>
</linearGradient>
<linearGradient id="paint29_linear_2265_109407" x1="197.571" y1="234.449" x2="197.887" y2="231.923" gradientUnits="userSpaceOnUse">
<stop stop-color="#26264F"/>
<stop offset="1" stop-color="#444B8C"/>
</linearGradient>
<linearGradient id="paint30_linear_2265_109407" x1="196.274" y1="232.146" x2="199.43" y2="226.463" gradientUnits="userSpaceOnUse">
<stop stop-color="#26264F"/>
<stop offset="1" stop-color="#444B8C"/>
</linearGradient>
<linearGradient id="paint31_linear_2265_109407" x1="192.703" y1="229.452" x2="203.182" y2="229.452" gradientUnits="userSpaceOnUse">
<stop stop-color="#26264F"/>
<stop offset="1" stop-color="#444B8C"/>
</linearGradient>
<linearGradient id="paint32_linear_2265_109407" x1="196.574" y1="230.593" x2="199.691" y2="224.595" gradientUnits="userSpaceOnUse">
<stop stop-color="#26264F"/>
<stop offset="1" stop-color="#444B8C"/>
</linearGradient>
<linearGradient id="paint33_linear_2265_109407" x1="192.233" y1="227.687" x2="203.646" y2="227.687" gradientUnits="userSpaceOnUse">
<stop stop-color="#26264F"/>
<stop offset="1" stop-color="#444B8C"/>
</linearGradient>
<linearGradient id="paint34_linear_2265_109407" x1="192.064" y1="225.625" x2="203.82" y2="225.625" gradientUnits="userSpaceOnUse">
<stop stop-color="#26264F"/>
<stop offset="1" stop-color="#444B8C"/>
</linearGradient>
<linearGradient id="paint35_linear_2265_109407" x1="197.65" y1="224.738" x2="198.808" y2="219.318" gradientUnits="userSpaceOnUse">
<stop stop-color="#26264F"/>
<stop offset="1" stop-color="#444B8C"/>
</linearGradient>
<linearGradient id="paint36_linear_2265_109407" x1="195.428" y1="194.495" x2="218.396" y2="230.96" gradientUnits="userSpaceOnUse">
<stop stop-color="#FCB148"/>
<stop offset="0.05" stop-color="#FDBA46"/>
<stop offset="0.14" stop-color="#FFC244"/>
<stop offset="0.32" stop-color="#FFC444"/>
<stop offset="0.48" stop-color="#FDB946"/>
<stop offset="0.78" stop-color="#F99C4D"/>
<stop offset="0.87" stop-color="#F8924F"/>
<stop offset="1" stop-color="#F8924F"/>
</linearGradient>
<linearGradient id="paint37_linear_2265_109407" x1="191.231" y1="222.572" x2="195.915" y2="208.891" gradientUnits="userSpaceOnUse">
<stop offset="0.49" stop-color="#EBEFF2"/>
<stop offset="1" stop-color="white"/>
</linearGradient>
<linearGradient id="paint38_linear_2265_109407" x1="195.708" y1="224.105" x2="200.391" y2="210.424" gradientUnits="userSpaceOnUse">
<stop offset="0.49" stop-color="#EBEFF2"/>
<stop offset="1" stop-color="white"/>
</linearGradient>
<linearGradient id="paint39_linear_2265_109407" x1="189.599" y1="222.014" x2="194.283" y2="208.332" gradientUnits="userSpaceOnUse">
<stop offset="0.49" stop-color="#EBEFF2"/>
<stop offset="1" stop-color="white"/>
</linearGradient>
<linearGradient id="paint40_linear_2265_109407" x1="196.233" y1="186.276" x2="191.655" y2="224.005" gradientUnits="userSpaceOnUse">
<stop stop-color="#FCB148"/>
<stop offset="0.05" stop-color="#FDBA46"/>
<stop offset="0.14" stop-color="#FFC244"/>
<stop offset="0.32" stop-color="#FFC444"/>
<stop offset="0.48" stop-color="#FDB946"/>
<stop offset="0.78" stop-color="#F99C4D"/>
<stop offset="0.87" stop-color="#F8924F"/>
<stop offset="1" stop-color="#F8924F"/>
</linearGradient>
<linearGradient id="paint41_linear_2265_109407" x1="81.5657" y1="199.353" x2="114.584" y2="242.206" gradientUnits="userSpaceOnUse">
<stop stop-color="#FF9085"/>
<stop offset="1" stop-color="#FB6FBB"/>
</linearGradient>
<linearGradient id="paint42_linear_2265_109407" x1="109.818" y1="200.254" x2="76.8916" y2="242.988" gradientUnits="userSpaceOnUse">
<stop stop-color="#FF9085"/>
<stop offset="1" stop-color="#FB6FBB"/>
</linearGradient>
<linearGradient id="paint43_linear_2265_109407" x1="218.287" y1="226.369" x2="218.137" y2="273.82" gradientUnits="userSpaceOnUse">
<stop stop-color="#AB316D"/>
<stop offset="1" stop-color="#792D3D"/>
</linearGradient>
<linearGradient id="paint44_linear_2265_109407" x1="209.997" y1="253.111" x2="240.049" y2="253.111" gradientUnits="userSpaceOnUse">
<stop stop-color="#FF9085"/>
<stop offset="1" stop-color="#FB6FBB"/>
</linearGradient>
<linearGradient id="paint45_linear_2265_109407" x1="209.997" y1="253.435" x2="240.049" y2="253.435" gradientUnits="userSpaceOnUse">
<stop stop-color="#FF9085"/>
<stop offset="1" stop-color="#FB6FBB"/>
</linearGradient>
<linearGradient id="paint46_linear_2265_109407" x1="231.448" y1="271.347" x2="264.746" y2="271.347" gradientUnits="userSpaceOnUse">
<stop stop-color="#FF9085"/>
<stop offset="1" stop-color="#FB6FBB"/>
</linearGradient>
<linearGradient id="paint47_linear_2265_109407" x1="235.764" y1="226.033" x2="299.582" y2="226.033" gradientUnits="userSpaceOnUse">
<stop stop-color="#311944"/>
<stop offset="1" stop-color="#6B3976"/>
</linearGradient>
<linearGradient id="paint48_linear_2265_109407" x1="235.764" y1="233.169" x2="299.581" y2="233.169" gradientUnits="userSpaceOnUse">
<stop stop-color="#311944"/>
<stop offset="1" stop-color="#6B3976"/>
</linearGradient>
<linearGradient id="paint49_linear_2265_109407" x1="244.955" y1="261.873" x2="244.307" y2="240.968" gradientUnits="userSpaceOnUse">
<stop stop-color="#AB316D"/>
<stop offset="1" stop-color="#792D3D"/>
</linearGradient>
<linearGradient id="paint50_linear_2265_109407" x1="240.617" y1="246.877" x2="246.533" y2="227.51" gradientUnits="userSpaceOnUse">
<stop stop-color="#AB316D"/>
<stop offset="1" stop-color="#792D3D"/>
</linearGradient>
<linearGradient id="paint51_linear_2265_109407" x1="231.448" y1="278.538" x2="264.747" y2="278.538" gradientUnits="userSpaceOnUse">
<stop stop-color="#FF9085"/>
<stop offset="1" stop-color="#FB6FBB"/>
</linearGradient>
<linearGradient id="paint52_linear_2265_109407" x1="223.435" y1="197.448" x2="233.35" y2="213.678" gradientUnits="userSpaceOnUse">
<stop stop-color="#FF9085"/>
<stop offset="1" stop-color="#FB6FBB"/>
</linearGradient>
<linearGradient id="paint53_linear_2265_109407" x1="209.444" y1="205.46" x2="219.704" y2="222.257" gradientUnits="userSpaceOnUse">
<stop stop-color="#FF9085"/>
<stop offset="1" stop-color="#FB6FBB"/>
</linearGradient>
<linearGradient id="paint54_linear_2265_109407" x1="257.239" y1="186.907" x2="223.212" y2="239.551" gradientUnits="userSpaceOnUse">
<stop stop-color="#AA80F9"/>
<stop offset="1" stop-color="#6165D7"/>
</linearGradient>
<linearGradient id="paint55_linear_2265_109407" x1="204.663" y1="309.535" x2="208.167" y2="298.301" gradientUnits="userSpaceOnUse">
<stop stop-color="#26264F"/>
<stop offset="1" stop-color="#444B8C"/>
</linearGradient>
<linearGradient id="paint56_linear_2265_109407" x1="221.241" y1="307.588" x2="225.859" y2="292.787" gradientUnits="userSpaceOnUse">
<stop stop-color="#26264F"/>
<stop offset="1" stop-color="#444B8C"/>
</linearGradient>
<linearGradient id="paint57_linear_2265_109407" x1="236.43" y1="305.46" x2="243.585" y2="282.523" gradientUnits="userSpaceOnUse">
<stop stop-color="#26264F"/>
<stop offset="1" stop-color="#444B8C"/>
</linearGradient>
<linearGradient id="paint58_linear_2265_109407" x1="251.048" y1="303.397" x2="260.634" y2="272.666" gradientUnits="userSpaceOnUse">
<stop stop-color="#26264F"/>
<stop offset="1" stop-color="#444B8C"/>
</linearGradient>
<linearGradient id="paint59_linear_2265_109407" x1="264.146" y1="301.553" x2="279.96" y2="250.854" gradientUnits="userSpaceOnUse">
<stop stop-color="#26264F"/>
<stop offset="1" stop-color="#444B8C"/>
</linearGradient>
<linearGradient id="paint60_linear_2265_109407" x1="238.623" y1="241.049" x2="186.07" y2="350.561" gradientUnits="userSpaceOnUse">
<stop stop-color="#E38DDD"/>
<stop offset="1" stop-color="#9571F6"/>
</linearGradient>
<linearGradient id="paint61_linear_2265_109407" x1="251.096" y1="247.035" x2="198.544" y2="356.546" gradientUnits="userSpaceOnUse">
<stop stop-color="#E38DDD"/>
<stop offset="1" stop-color="#9571F6"/>
</linearGradient>
<linearGradient id="paint62_linear_2265_109407" x1="262.053" y1="252.293" x2="209.501" y2="361.804" gradientUnits="userSpaceOnUse">
<stop stop-color="#E38DDD"/>
<stop offset="1" stop-color="#9571F6"/>
</linearGradient>
<linearGradient id="paint63_linear_2265_109407" x1="272.594" y1="257.351" x2="220.041" y2="366.862" gradientUnits="userSpaceOnUse">
<stop stop-color="#E38DDD"/>
<stop offset="1" stop-color="#9571F6"/>
</linearGradient>
<linearGradient id="paint64_linear_2265_109407" x1="281.98" y1="261.856" x2="229.427" y2="371.366" gradientUnits="userSpaceOnUse">
<stop stop-color="#E38DDD"/>
<stop offset="1" stop-color="#9571F6"/>
</linearGradient>
<linearGradient id="paint65_linear_2265_109407" x1="206.227" y1="318.021" x2="207.692" y2="318.994" gradientUnits="userSpaceOnUse">
<stop stop-color="#444B8C"/>
<stop offset="1" stop-color="#26264F"/>
</linearGradient>
<linearGradient id="paint66_linear_2265_109407" x1="207.621" y1="318.983" x2="207.735" y2="316.698" gradientUnits="userSpaceOnUse">
<stop stop-color="#FFC444"/>
<stop offset="1" stop-color="#F36F56"/>
</linearGradient>
<linearGradient id="paint67_linear_2265_109407" x1="206.338" y1="317.855" x2="207.801" y2="318.828" gradientUnits="userSpaceOnUse">
<stop stop-color="#444B8C"/>
<stop offset="1" stop-color="#26264F"/>
</linearGradient>
<linearGradient id="paint68_linear_2265_109407" x1="197.598" y1="319.504" x2="198.912" y2="320.672" gradientUnits="userSpaceOnUse">
<stop stop-color="#444B8C"/>
<stop offset="1" stop-color="#26264F"/>
</linearGradient>
<linearGradient id="paint69_linear_2265_109407" x1="198.915" y1="320.709" x2="199.356" y2="318.463" gradientUnits="userSpaceOnUse">
<stop stop-color="#FFC444"/>
<stop offset="1" stop-color="#F36F56"/>
</linearGradient>
<linearGradient id="paint70_linear_2265_109407" x1="197.731" y1="319.355" x2="199.044" y2="320.523" gradientUnits="userSpaceOnUse">
<stop stop-color="#444B8C"/>
<stop offset="1" stop-color="#26264F"/>
</linearGradient>
<linearGradient id="paint71_linear_2265_109407" x1="204.739" y1="306.858" x2="210.167" y2="306.858" gradientUnits="userSpaceOnUse">
<stop stop-color="#311944"/>
<stop offset="1" stop-color="#893976"/>
</linearGradient>
<linearGradient id="paint72_linear_2265_109407" x1="202.784" y1="299.83" x2="202.738" y2="316.168" gradientUnits="userSpaceOnUse">
<stop stop-color="#311944"/>
<stop offset="1" stop-color="#893976"/>
</linearGradient>
<linearGradient id="paint73_linear_2265_109407" x1="195.922" y1="285.518" x2="193.339" y2="280.421" gradientUnits="userSpaceOnUse">
<stop stop-color="#FF9085"/>
<stop offset="1" stop-color="#FB6FBB"/>
</linearGradient>
<linearGradient id="paint74_linear_2265_109407" x1="192.567" y1="284.974" x2="191.764" y2="288.639" gradientUnits="userSpaceOnUse">
<stop stop-color="#FFC444"/>
<stop offset="1" stop-color="#F36F56"/>
</linearGradient>
<linearGradient id="paint75_linear_2265_109407" x1="199.823" y1="284.658" x2="209.109" y2="293.525" gradientUnits="userSpaceOnUse">
<stop stop-color="#E38DDD"/>
<stop offset="1" stop-color="#9571F6"/>
</linearGradient>
<linearGradient id="paint76_linear_2265_109407" x1="202.091" y1="275.056" x2="205.81" y2="283.591" gradientUnits="userSpaceOnUse">
<stop stop-color="#FFC444"/>
<stop offset="1" stop-color="#F36F56"/>
</linearGradient>
<linearGradient id="paint77_linear_2265_109407" x1="202.453" y1="274.773" x2="206.606" y2="284.301" gradientUnits="userSpaceOnUse">
<stop stop-color="#FFC444"/>
<stop offset="1" stop-color="#F36F56"/>
</linearGradient>
<linearGradient id="paint78_linear_2265_109407" x1="196.394" y1="288.248" x2="205.681" y2="297.115" gradientUnits="userSpaceOnUse">
<stop stop-color="#E38DDD"/>
<stop offset="1" stop-color="#9571F6"/>
</linearGradient>
<linearGradient id="paint79_linear_2265_109407" x1="197.782" y1="286.794" x2="207.069" y2="295.661" gradientUnits="userSpaceOnUse">
<stop stop-color="#E38DDD"/>
<stop offset="1" stop-color="#9571F6"/>
</linearGradient>
<linearGradient id="paint80_linear_2265_109407" x1="187.921" y1="323.908" x2="189.305" y2="316.893" gradientUnits="userSpaceOnUse">
<stop stop-color="#444B8C"/>
<stop offset="1" stop-color="#26264F"/>
</linearGradient>
<linearGradient id="paint81_linear_2265_109407" x1="189.568" y1="322.404" x2="188.474" y2="311.466" gradientUnits="userSpaceOnUse">
<stop stop-color="#FFC444"/>
<stop offset="1" stop-color="#F36F56"/>
</linearGradient>
<linearGradient id="paint82_linear_2265_109407" x1="185.541" y1="322.806" x2="184.447" y2="311.869" gradientUnits="userSpaceOnUse">
<stop stop-color="#FFC444"/>
<stop offset="1" stop-color="#F36F56"/>
</linearGradient>
<linearGradient id="paint83_linear_2265_109407" x1="184.822" y1="323.297" x2="186.206" y2="316.282" gradientUnits="userSpaceOnUse">
<stop stop-color="#444B8C"/>
<stop offset="1" stop-color="#26264F"/>
</linearGradient>
<linearGradient id="paint84_linear_2265_109407" x1="188.156" y1="298.709" x2="191.419" y2="321.209" gradientUnits="userSpaceOnUse">
<stop stop-color="#311944"/>
<stop offset="1" stop-color="#893976"/>
</linearGradient>
<linearGradient id="paint85_linear_2265_109407" x1="188.155" y1="298.709" x2="191.419" y2="321.209" gradientUnits="userSpaceOnUse">
<stop stop-color="#311944"/>
<stop offset="1" stop-color="#893976"/>
</linearGradient>
<linearGradient id="paint86_linear_2265_109407" x1="173.803" y1="309.854" x2="192.134" y2="307.175" gradientUnits="userSpaceOnUse">
<stop stop-color="#311944"/>
<stop offset="1" stop-color="#893976"/>
</linearGradient>
<linearGradient id="paint87_linear_2265_109407" x1="201.542" y1="311.954" x2="185.694" y2="285.357" gradientUnits="userSpaceOnUse">
<stop stop-color="#FF9085"/>
<stop offset="1" stop-color="#FB6FBB"/>
</linearGradient>
<linearGradient id="paint88_linear_2265_109407" x1="171.405" y1="286.038" x2="186.862" y2="303.501" gradientUnits="userSpaceOnUse">
<stop stop-color="#FF9085"/>
<stop offset="1" stop-color="#FB6FBB"/>
</linearGradient>
<linearGradient id="paint89_linear_2265_109407" x1="183.533" y1="277.195" x2="186.269" y2="280.77" gradientUnits="userSpaceOnUse">
<stop stop-color="#FFC444"/>
<stop offset="1" stop-color="#F36F56"/>
</linearGradient>
<linearGradient id="paint90_linear_2265_109407" x1="175.348" y1="283.972" x2="180.866" y2="291.178" gradientUnits="userSpaceOnUse">
<stop stop-color="#444B8C"/>
<stop offset="1" stop-color="#26264F"/>
</linearGradient>
<linearGradient id="paint91_linear_2265_109407" x1="172.712" y1="292.758" x2="177.429" y2="300.131" gradientUnits="userSpaceOnUse">
<stop stop-color="#FFC444"/>
<stop offset="1" stop-color="#F36F56"/>
</linearGradient>
<linearGradient id="paint92_linear_2265_109407" x1="175.785" y1="283.431" x2="174.421" y2="281.2" gradientUnits="userSpaceOnUse">
<stop stop-color="#AA80F9"/>
<stop offset="1" stop-color="#6165D7"/>
</linearGradient>
<linearGradient id="paint93_linear_2265_109407" x1="174.668" y1="292.538" x2="170.797" y2="292.848" gradientUnits="userSpaceOnUse">
<stop stop-color="#444B8C"/>
<stop offset="1" stop-color="#26264F"/>
</linearGradient>
<linearGradient id="paint94_linear_2265_109407" x1="174.868" y1="292.88" x2="171.014" y2="293.188" gradientUnits="userSpaceOnUse">
<stop stop-color="#444B8C"/>
<stop offset="1" stop-color="#26264F"/>
</linearGradient>
<linearGradient id="paint95_linear_2265_109407" x1="175.101" y1="293.542" x2="172.924" y2="293.716" gradientUnits="userSpaceOnUse">
<stop stop-color="#444B8C"/>
<stop offset="1" stop-color="#26264F"/>
</linearGradient>
<linearGradient id="paint96_linear_2265_109407" x1="174.649" y1="287.108" x2="175.971" y2="288.837" gradientUnits="userSpaceOnUse">
<stop stop-color="#FFC444"/>
<stop offset="1" stop-color="#F36F56"/>
</linearGradient>
<linearGradient id="paint97_linear_2265_109407" x1="195.954" y1="315.281" x2="180.106" y2="288.685" gradientUnits="userSpaceOnUse">
<stop stop-color="#FF9085"/>
<stop offset="1" stop-color="#FB6FBB"/>
</linearGradient>
<linearGradient id="paint98_linear_2265_109407" x1="198.212" y1="291.849" x2="186.653" y2="272.452" gradientUnits="userSpaceOnUse">
<stop stop-color="#444B8C"/>
<stop offset="1" stop-color="#26264F"/>
</linearGradient>
<linearGradient id="paint99_linear_2265_109407" x1="173.968" y1="0" x2="173.968" y2="509" gradientUnits="userSpaceOnUse">
<stop offset="0.3125" stop-color="white" stop-opacity="0"/>
<stop offset="0.791667" stop-color="white" stop-opacity="0.6"/>
</linearGradient>
<clipPath id="clip0_2265_109407">
<rect width="357" height="509" fill="white" transform="translate(-5)"/>
</clipPath>
<clipPath id="clip1_2265_109407">
<rect width="278" height="158.044" fill="white" transform="translate(35 176)"/>
</clipPath>
</defs>
</svg>
