<svg width="967" height="277" viewBox="0 0 967 277" fill="none" xmlns="http://www.w3.org/2000/svg">
<path d="M39.0262 274.806C39.0262 274.806 -11.9516 179.116 39.0262 88.7919C90.004 -1.53265 193.005 17.9047 247.223 44.2044C301.442 70.5041 374.093 -8.39495 493.366 0.76639C612.64 9.92773 609.399 64.7913 725.397 49.9172C841.43 35.043 927.079 43.9257 956.348 122.372C985.618 200.818 938.995 274.806 938.995 274.806H39.0262Z" fill="#EBF3FA"/>
<g opacity="0.5">
<path opacity="0.5" d="M320.78 150.378C320.78 150.378 316.738 116.45 299.316 96.1767C297.016 93.4945 292.591 95.2014 292.661 98.7544C292.661 98.8241 292.661 98.8589 292.661 98.9286C292.905 104.99 312.383 130.523 320.78 150.378Z" fill="#AEC3FF"/>
<path opacity="0.5" d="M322.906 160.097C322.906 160.097 305.553 117.669 275.97 98.9286C274.158 97.7791 271.719 98.1971 270.5 99.9736C269.698 101.123 269.35 102.9 270.256 105.721C272.59 113.141 305.623 138.256 322.906 160.097Z" fill="#AEC3FF"/>
</g>
<g opacity="0.5">
<path opacity="0.5" d="M128.577 255.194C128.577 255.194 104.011 231.437 77.7385 226.7C74.254 226.073 71.8846 230.183 74.1843 232.9C74.2192 232.935 74.254 233.005 74.2889 233.039C78.296 237.568 109.517 245.092 128.577 255.194Z" fill="#AEC3FF"/>
<path opacity="0.5" d="M136.347 261.394C136.347 261.394 96.1018 239.414 61.2919 243.559C59.1664 243.803 57.5287 245.684 57.7029 247.809C57.8074 249.202 58.6785 250.805 61.1177 252.407C67.7033 256.692 109.169 255.368 136.347 261.394Z" fill="#AEC3FF"/>
</g>
<path opacity="0.5" d="M150.111 135.226C150.111 135.226 148.682 169.502 142.306 168.84C135.929 168.179 146.661 130.767 146.661 130.767C146.661 130.767 119.552 108.996 107.287 107.358C107.287 107.358 118.786 143.83 112.758 141.635C106.764 139.44 93.0355 102.029 93.0355 102.029C93.0355 102.029 63.069 88.966 53.7306 106.348C44.3922 123.73 50.3507 134.877 54.7411 137.107C59.0967 139.336 88.9586 145.85 87.2861 149.542C85.6135 153.235 64.0795 154.733 53.6609 148.671C53.6609 148.671 58.9225 182.077 75.5434 184.307C92.1295 186.536 99.4817 177.653 109.726 179.221C119.97 180.788 126.661 185.177 121.016 186.745C115.371 188.278 98.7848 182.53 89.0632 187.546C79.3415 192.562 71.7802 195.279 86.1362 201.863C100.492 208.447 127.985 212.801 136.104 202.455C136.452 202.002 136.8 201.584 137.114 201.166C136.556 202.037 136.104 202.455 136.104 202.455C138.508 204.719 140.877 213.428 142.41 220.046C142.585 221.161 142.933 222.694 143.456 224.819C143.665 225.759 143.804 226.525 143.909 227.083C146.139 241.609 137.985 263.902 137.985 263.902L141.017 265.505C153.526 244.012 145.407 222.136 145.407 222.136C140.808 205.172 144.222 192.144 144.222 192.144C144.222 192.144 176.976 182.635 168.579 157.484C168.579 157.45 160.878 141.391 150.111 135.226Z" fill="#AEC3FF"/>
<path opacity="0.5" d="M736.826 108.02C731.216 87.503 696.546 93.9821 696.546 93.9821C696.546 93.9821 673.061 129.966 666.231 130.836C659.367 131.707 680.273 96.1418 680.273 96.1418C666.998 94.8878 633.233 111.225 633.233 111.225C633.233 111.225 635.463 153.165 628.599 152.329C621.734 151.493 628.529 115.091 628.529 115.091C615.706 118.958 603.754 133.972 603.754 133.972C588.806 158.39 620.968 176.295 620.968 176.295C620.968 176.295 621.421 190.855 612.466 207.541C612.466 207.541 610.445 210.641 608.389 215.866H611.873C612.152 214.926 612.466 214.02 612.814 213.149V213.114C613.058 212.557 613.406 211.791 613.825 210.85C614.905 208.76 615.602 207.193 616.055 206.078C619.26 199.494 623.86 190.925 626.926 189.114C626.926 189.114 626.543 188.556 626.16 187.511C626.404 188.034 626.647 188.556 626.926 189.114C632.954 201.933 662.921 204.023 679.611 200.574C696.302 197.126 689.02 192.423 679.995 184.794C671.005 177.166 652.154 179.221 646.579 176.225C641.003 173.229 649.122 170.234 660.273 171.07C671.388 171.906 676.998 183.018 694.978 184.69C712.958 186.362 726.582 152.538 726.582 152.538C714.177 156.405 691.912 149.612 691.04 145.327C690.169 141.043 723.132 141.426 728.255 140.102C733.447 138.848 742.436 128.537 736.826 108.02Z" fill="#AEC3FF"/>
<path d="M200.287 171.906C204.469 171.488 209.452 170.756 211.438 169.537C214.434 167.691 219.661 159.958 222.902 154.35C223.006 154.21 223.215 151.354 223.285 151.214C224.957 148.219 225.724 150.065 225.829 147.696C225.898 146.233 225.724 145.014 225.445 143.934C225.062 142.506 224.4 141.391 223.738 140.52C223.633 140.381 223.564 140.242 223.424 140.137C222.309 138.814 221.229 138.291 221.229 138.291C220.672 138.047 220.079 138.326 219.452 138.988V139.023C218.929 139.545 218.407 140.346 217.849 141.356C217.814 141.391 217.814 141.391 217.814 141.426C217.71 141.635 217.57 141.879 217.431 142.123C217.396 142.158 217.361 142.227 217.326 142.297C217.083 142.819 216.804 143.377 216.56 143.969C213.737 150.135 211.612 160.341 209.103 163.093C208.023 164.277 202.204 165.775 198.266 167.517C195.409 168.736 197.535 172.219 200.287 171.906Z" fill="#FFB27D"/>
<path d="M219.208 138.814C218.128 139.754 216.874 142.854 216.525 143.899C216.525 143.899 219.522 143.795 220.741 146.094C220.776 146.094 220.776 137.455 219.208 138.814Z" fill="#2B478B"/>
<path d="M112.2 274.562L77.0417 145.746L107.775 143.621L119.169 206.67C120.458 213.567 121.469 219.35 122.235 224.018C123.002 228.685 123.664 232.831 124.221 236.488C124.221 231.019 124.326 225.759 124.535 220.708C124.709 215.623 125.023 210.746 125.441 206.078L130.772 142.018L161.505 139.893L175.339 202.525C175.896 205.033 177.011 210.885 178.684 220.012C179.694 225.341 180.496 229.556 181.088 232.622C181.158 224.714 181.262 218.514 181.367 214.02C181.471 209.527 181.611 205.765 181.75 202.734L184.259 138.291L215.062 136.131L198.267 268.57L165.269 270.869L154.327 217.364C153.387 212.662 152.481 207.715 151.644 202.49C150.808 197.3 149.972 191.901 149.205 186.327C149.205 192.806 149.135 198.589 148.996 203.64C148.857 208.691 148.682 213.463 148.404 217.922L145.372 272.263L112.2 274.562Z" fill="#F77D48"/>
<path d="M228.233 105.861C228.233 105.443 228.581 100.984 235.376 100.74C235.376 100.74 232.031 101.123 231.439 102.621C231.439 102.621 233.704 100.81 235.585 101.402C237.432 101.994 238.512 105.234 238.547 106.313C238.547 107.393 237.536 110.842 236.352 111.121C235.899 111.225 235.376 111.19 234.923 111.121C235.237 111.608 235.55 112.166 235.829 112.758C238.547 118.331 235.759 123.765 233.46 123.173C231.996 122.79 231.578 125.298 231.578 125.298L217.257 113.698C217.257 113.663 222.518 102.795 228.233 105.861Z" fill="#2C3A64"/>
<path d="M223.25 269.894L226.282 271.008C226.282 271.008 239.488 252.686 241.126 236.593C241.404 233.701 241.335 230.915 240.707 228.372C240.707 228.372 240.847 227.64 241.056 226.316C241.16 225.724 241.3 224.993 241.439 224.122C241.857 221.649 242.45 218.305 243.147 214.473C244.715 205.66 246.701 194.374 248.269 186.083L247.432 185.805L238.582 182.948L236.735 177.131L230.149 175.389C230.149 175.389 228.686 178.28 227.362 191.9C227.118 193.677 226.909 195.663 226.735 197.787C226.212 204.301 226.177 212.383 227.362 221.649C227.676 224.017 228.059 226.456 228.512 228.964C228.86 230.81 228.895 233.318 228.756 236.209C228.094 249.446 223.25 269.894 223.25 269.894Z" fill="#739AF0"/>
<path d="M226.735 197.857L241.056 226.351C241.16 225.759 241.3 225.028 241.439 224.157C241.857 221.684 242.45 218.34 243.146 214.508C244.714 205.695 246.701 194.409 248.269 186.118L247.432 185.84L238.582 182.983L236.735 177.166L227.71 174.797C227.71 174.832 226.735 192.423 226.735 197.857Z" fill="#6385DB"/>
<path d="M233.042 179.116L233.39 176.26C238.965 177.723 253.809 172.15 253.809 172.15C253.809 172.15 259.21 176.887 258.478 188.208C258.13 193.747 257.502 217.26 256.84 224.226C256.597 226.735 256.387 228.546 256.318 229.277C256.283 229.486 256.353 229.695 256.492 229.904C257.468 231.542 258.269 233.249 258.931 235.025C265.377 252.233 257.921 273.447 257.921 273.447L255.969 272.681C255.969 272.681 251.718 249.098 248.269 238.683C247.676 236.906 247.119 235.513 246.596 234.712C245.098 232.308 243.704 228.337 242.45 223.634C240.08 214.752 238.129 203.187 236.874 194.269C236.665 194.2 233.042 179.116 233.042 179.116Z" fill="#739AF0"/>
<path d="M222.414 144.596C224.156 145.397 226.282 145.954 228.825 146.094C238.373 146.616 240.568 138.256 240.951 132.683C239.557 132.195 238.373 132.23 237.676 132.265C237.432 132.265 237.153 132.3 236.909 132.334C235.968 132.404 235.028 132.021 234.435 131.255C233.355 129.861 232.066 127.353 231.23 123.905L230.811 124.079L223.912 127.318C223.912 127.318 224.644 129.548 225.201 131.707C225.445 132.648 225.62 133.554 225.724 134.25C225.794 134.912 225.445 135.574 224.818 135.818C224.679 136.062 223.18 139.859 222.414 144.596Z" fill="#FFB27D"/>
<path d="M220.01 150.866C220.079 151.04 220.149 151.249 220.253 151.424C222.658 156.649 227.153 178.211 227.153 178.211C228.512 182.391 256.318 177.445 256.422 173.926C257.468 170.164 252.694 164.173 250.011 161.142C249.662 160.759 249.384 160.341 249.105 159.923C248.443 158.843 248.025 157.624 247.885 156.37C247.363 151.354 247.572 146.651 247.502 143.795C246.979 143.412 246.457 143.029 246.004 142.715C245.272 142.193 244.645 141.705 244.157 141.182C243.634 140.625 243.321 140.068 243.286 139.441C243.251 138.953 243.286 138.465 243.321 137.978C243.355 137.734 243.355 137.525 243.39 137.281C243.774 134.843 244.784 132.648 244.784 132.648C242.206 131.603 237.676 132.23 237.676 132.23C237.676 132.23 237.676 132.474 237.676 132.892C237.676 134.564 236.317 137.769 234.714 140.137C233.007 142.68 226.944 144.77 224.992 140.939C224.33 139.615 224.714 136.027 224.783 135.783C220.706 137.385 219.243 138.744 219.243 138.744C221.682 140.416 218.128 145.815 220.01 150.866Z" fill="#2B478B"/>
<path d="M223.877 127.353C223.877 127.353 224.609 129.582 225.167 131.742C229.209 130.627 230.428 126.378 230.777 124.114L223.877 127.353Z" fill="#ED985F"/>
<path d="M223.041 129.722C223.041 129.722 232.693 127.492 231.195 121.501C229.696 115.509 229.975 111.19 223.738 112.374C217.536 113.559 216.908 116.136 216.908 118.227C216.908 120.386 220.497 130.175 223.041 129.722Z" fill="#FFB27D"/>
<path d="M216.386 114.848C217.431 112.688 218.651 112.793 219.417 113.176C223.947 108.996 228.407 112.41 228.407 112.41C230.114 116.555 233.808 118.227 233.808 118.227C233.808 118.227 232.31 119.759 228.024 119.725C226.7 119.725 225.41 119.098 224.191 118.296C226.491 120.63 229.208 122.059 229.208 122.059C223.842 121.013 220.219 114.813 219.87 114.151C219.417 114.813 218.546 116.241 218.476 117.46C218.372 119.098 218.929 122.302 217.988 122.407C217.988 122.407 214.818 118.122 216.386 114.848Z" fill="#2C3A64"/>
<path d="M246.631 275.015H261.928C261.928 275.015 262.311 272.681 261.51 270.904C260.743 269.197 259.558 268.431 259.837 266.376C258.861 267.386 257.293 268.501 255.063 268.187C254.785 268.64 253.321 270.974 252.415 271.636C251.405 272.367 246.944 272.089 246.631 275.015Z" fill="#304B77"/>
<path d="M213.738 275.014H229.034C229.034 275.014 229.592 272.576 228.616 270.904C227.71 269.441 228.059 268.605 228.721 267.386C228.024 267.664 227.118 267.943 226.142 267.873C225.376 267.839 224.574 267.49 223.877 267.072C223.215 267.839 220.393 271.009 219.522 271.67C218.511 272.367 214.051 272.088 213.738 275.014Z" fill="#304B77"/>
<path d="M248.129 141.461C248.094 142.645 247.851 144.074 247.502 145.641C246.945 148.254 246.039 151.284 244.889 154.384C244.575 155.22 244.227 156.056 243.913 156.927C241.439 163.093 238.233 168.841 235.55 170.791C235.446 170.896 235.341 170.965 235.237 171.035C234.122 171.732 232.449 172.463 230.533 173.125C227.815 174.031 224.609 174.867 221.717 175.564H221.682C220.01 175.947 212.344 177.549 212.344 177.549L211.717 175.18C211.717 175.18 225.864 166.925 228.303 165.183C229.696 164.173 230.777 163.267 231.125 162.64C231.683 161.665 232.345 160.097 233.042 158.147C233.425 157.136 233.808 156.022 234.191 154.872C234.888 152.956 235.585 150.831 236.282 148.741C237.571 144.91 238.965 141.078 240.254 138.117C240.463 137.629 240.986 137.385 241.509 137.49L247.99 138.848C248.025 139.336 248.06 139.824 248.06 140.381C248.164 140.66 248.129 141.043 248.129 141.461Z" fill="#FFB27D"/>
<path d="M237.676 141.287C243.251 138.674 248.129 140.277 248.129 140.277C248.06 133.623 244.749 132.718 244.749 132.718C243.425 132.16 237.641 132.962 237.676 141.287Z" fill="#2B478B"/>
<path d="M213.18 174.24C213.18 174.24 209.277 175.772 208.546 176.365C207.779 176.957 206.351 178.873 206.072 179.918C206.072 179.918 206.072 180.336 206.49 180.336C206.873 180.336 207.744 178.838 208.372 179.082C208.372 179.082 208.964 180.684 208.964 181.659C208.964 182.321 208.581 184.864 208.685 185.421C208.79 185.979 211.229 183.715 211.717 181.973C212.1 180.58 211.891 179.709 212.135 177.967C212.344 176.469 216.525 175.563 216.525 175.563L213.18 174.24Z" fill="#FFB27D"/>
<path d="M272.799 274.631V143.69H344.092V169.119H303.254V193.19H340.921V219.454H303.254V248.018H344.092V274.631H272.799Z" fill="#F77D48"/>
<path d="M427.092 274.631H359.632V143.69H390.261V248.192H427.092V274.631Z" fill="#F77D48"/>
<path d="M492.565 220.813H522.671C522.74 221.614 522.775 222.45 522.81 223.356C522.845 224.261 522.845 225.62 522.845 227.431C522.845 243.42 519.36 255.264 512.357 263.032C505.353 270.765 494.621 274.631 480.16 274.631C471.658 274.631 464.375 273.203 458.312 270.382C452.249 267.56 447.336 263.275 443.608 257.528C440.995 253.452 439.113 247.774 437.998 240.529C436.848 233.283 436.291 221.753 436.291 206.008C436.291 190.263 436.848 178.733 437.998 171.488C439.148 164.242 440.995 158.564 443.608 154.489C447.301 148.811 452.145 144.561 458.138 141.705C464.131 138.848 471.309 137.42 479.672 137.42C494.028 137.42 504.76 141.391 511.938 149.368C519.116 157.345 522.705 169.258 522.705 185.108V186.397L492.948 186.327C492.843 177.444 491.798 171.174 489.882 167.586C487.965 163.999 484.725 162.187 480.195 162.187C475.247 162.187 471.902 164.382 470.09 168.771C468.278 173.16 467.372 184.76 467.372 203.605V206.078C467.372 226.317 468.278 238.717 470.09 243.281C471.902 247.844 475.282 250.143 480.195 250.143C484.794 250.143 488 248.471 489.847 245.162C491.694 241.853 492.6 235.687 492.6 226.665V220.813H492.565Z" fill="#F77D48"/>
<path d="M537.793 206.008C537.793 190.263 538.351 178.733 539.501 171.488C540.651 164.242 542.497 158.564 545.111 154.489C548.839 148.706 553.752 144.422 559.815 141.6C565.878 138.779 573.161 137.385 581.663 137.385C590.235 137.385 597.482 138.779 603.476 141.6C609.469 144.422 614.312 148.706 618.076 154.489C620.794 158.634 622.71 164.312 623.86 171.592C625.01 178.838 625.567 190.333 625.567 206.043C625.567 221.684 625.01 233.144 623.86 240.424C622.71 247.705 620.794 253.417 618.076 257.563C614.382 263.275 609.539 267.56 603.476 270.416C597.448 273.238 590.165 274.666 581.663 274.666C573.161 274.666 565.878 273.238 559.815 270.416C553.752 267.595 548.839 263.31 545.111 257.563C542.497 253.487 540.616 247.809 539.501 240.564C538.386 233.283 537.793 221.788 537.793 206.008ZM594.277 217.852V194.2C594.277 179.674 593.371 170.721 591.524 167.273C589.677 163.859 586.332 162.117 581.524 162.117C576.82 162.117 573.544 163.859 571.732 167.377C569.92 170.896 569.014 179.813 569.014 194.165V217.817C569.014 231.994 569.92 240.877 571.732 244.465C573.544 248.053 576.854 249.864 581.698 249.864C586.472 249.864 589.747 248.123 591.559 244.604C593.371 241.121 594.277 232.169 594.277 217.852Z" fill="#F77D48"/>
<path d="M643.338 274.631V143.69H686.197L697.835 199.39C697.905 199.669 698.358 203.187 699.229 209.875C700.1 216.598 701.041 223.321 701.982 230.079C702.713 225.028 703.654 218.793 704.734 211.338C705.849 203.884 706.476 199.773 706.651 198.972L718.219 143.69H760.66V274.631H731.739L734.387 173.439L713.62 274.631H690.309L669.541 173.439L672.189 274.631H643.338Z" fill="#F77D48"/>
<path d="M89.3418 71.34C89.3418 71.34 95.4396 56.8143 110.005 58.4166C110.005 58.4166 131.19 34.1722 153.735 55.1771C153.735 55.1771 177.743 49.9868 195.514 59.6707C207.361 66.1498 211.263 72.9424 211.263 72.9424L89.3418 71.34Z" fill="#F8FCFF"/>
<path d="M323.533 81.7207C323.533 81.7207 331.582 67.7522 350.886 69.2849C350.886 69.2849 378.867 45.981 408.729 66.1847C408.729 66.1847 440.437 61.1686 463.957 70.5041C479.638 76.7394 484.795 83.2534 484.795 83.2534L323.533 81.7207Z" fill="#F8FCFF"/>
<path d="M460.682 49.2903C460.682 49.2903 466.396 38.7007 480.056 39.8851C480.056 39.8851 499.917 22.2591 521.068 37.5164C521.068 37.5164 543.577 33.7195 560.233 40.7908C571.349 45.4934 575.007 50.4398 575.007 50.4398L460.682 49.2903Z" fill="#F8FCFF"/>
<path d="M760.73 99.0681C760.73 99.0681 764.841 91.4394 774.737 92.2754C774.737 92.2754 789.058 79.5262 804.355 90.5686C804.355 90.5686 820.593 87.8515 832.614 92.9373C840.629 96.351 843.277 99.9041 843.277 99.9041L760.73 99.0681Z" fill="#F8FCFF"/>
<path d="M880.282 153.374C878.296 157.066 875.822 160.794 873.278 163.824C870.63 166.994 867.877 169.398 865.577 170.234H865.543C865.438 170.269 865.299 170.303 865.194 170.338C865.194 170.338 865.194 170.338 865.159 170.338C864.706 170.478 864.253 170.512 863.835 170.512C856.274 170.164 848.329 154.001 848.329 154.001C848.329 154.001 848.538 152.085 850.002 150.727C851.291 149.542 852.267 149.229 852.267 149.229C852.267 149.229 860.386 157.554 862.372 158.181C863.626 158.564 865.264 152.747 867.598 145.432C869.968 138.117 878.226 136.305 878.226 136.305C878.226 136.305 886.624 141.6 880.282 153.374Z" fill="#739AF0"/>
<path d="M873.278 163.824C870.63 166.994 867.877 169.433 865.577 170.234H865.543L865.194 170.338H865.159C865.229 170.269 867.703 169.015 868.086 166.646C868.469 164.242 865.926 162.257 872.337 158.495C876.135 156.335 873.278 163.824 873.278 163.824Z" fill="#6385DB"/>
<path d="M867.389 274.806H885.056C886.31 273.935 884.707 265.54 884.707 265.54C884.707 265.54 879.864 263.694 879.062 267.421C878.226 271.148 872.93 272.332 870.107 272.785C868.191 273.099 867.564 274.179 867.389 274.806Z" fill="#24406D"/>
<path d="M894.359 187.755C894.359 187.755 893.802 198.066 893.105 210.014C892.617 218.583 892.025 227.989 891.537 235.025C891.467 235.966 891.397 236.871 891.363 237.707C891.328 237.986 891.328 238.23 891.293 238.474C890.038 254.288 885.787 268.117 885.787 268.117C880.805 269.162 878.574 267.247 878.574 267.247C878.574 267.247 875.16 227.118 873.87 210.92C872.93 199.007 872.128 181.659 872.128 181.659L894.359 187.755Z" fill="#C1514C"/>
<path d="M893.105 210.014C892.617 218.583 892.025 227.988 891.537 235.025C888.296 227.361 881.641 197.474 881.641 197.474L893.105 210.014Z" fill="#A9453D"/>
<path d="M893.593 274.806H911.259C912.513 273.935 910.91 265.54 910.91 265.54C910.91 265.54 906.102 263.694 905.266 267.421C904.429 271.148 899.133 272.332 896.31 272.785C894.394 273.099 893.802 274.179 893.593 274.806Z" fill="#24406D"/>
<path d="M876.937 185.7C876.937 185.7 889.551 217.12 893.593 229.034C896.485 237.533 904.569 267.281 904.569 267.281C904.569 267.281 908.088 268.361 911.05 266.271C911.05 266.271 914.081 235.861 907.983 227.292C904.743 222.729 907.182 179.987 894.08 179.639C880.979 179.291 876.937 185.7 876.937 185.7Z" fill="#C1514C"/>
<path d="M902.792 175.598C902.722 180.057 902.687 183.331 902.687 184.167C902.722 186.884 900.98 187.477 899.203 187.895C899.203 187.895 897.565 188.243 895.474 188.591C893.453 188.94 890.979 189.253 889.237 189.253C880.386 189.183 872.965 186.571 872.965 186.571C871.292 186.571 870.525 183.993 870.247 180.405C870.072 177.967 870.804 153.653 870.909 147.592C870.978 143.237 873.348 139.232 874.045 138.639C880.247 133.17 898.506 133.867 901.781 137.629C902.583 138.57 902.827 147.557 902.861 157.415C902.931 163.755 902.861 170.478 902.792 175.598Z" fill="#739AF0"/>
<path d="M891.815 135.469C889.481 138.012 881.641 137.629 881.885 135.4C881.92 135.121 881.954 133.519 881.989 133.275C882.024 133.066 882.024 132.892 882.059 132.683C882.129 132.125 882.164 131.672 882.198 131.254C882.303 130.035 882.338 129.373 882.338 129.373C882.547 129.304 887.599 127.876 890.108 127.283C890.944 127.074 891.502 126.97 891.502 127.04C890.735 132.683 892.582 134.633 891.815 135.469Z" fill="#FFB27D"/>
<path d="M890.352 128.955C890.352 128.955 888.261 131.08 882.164 131.255C882.268 130.035 882.303 129.373 882.303 129.373C882.512 129.304 887.564 127.876 890.073 127.283C890.526 127.492 889.969 128.642 890.352 128.955Z" fill="#ED975D"/>
<path d="M880.77 129.095C880.77 129.095 882.303 129.652 884.254 129.896C887.111 130.279 890.909 130.07 892.094 126.587C894.08 120.735 896.624 117.251 890.77 114.848C887.634 113.559 885.613 113.489 884.254 113.977C883.069 114.395 882.373 115.231 881.85 116.067C880.7 117.878 878.4 128.05 880.77 129.095Z" fill="#FFB27D"/>
<path d="M882.303 111.573C880.212 112.967 880.874 116.171 883.348 116.624C884.847 116.868 886.066 116.938 886.798 117.251C888.261 117.913 889.516 118.575 889.167 120.839C889.063 121.606 888.679 122.546 890.666 122.093C890.979 122.024 891.223 122.024 891.397 122.128C892.234 122.616 891.153 124.984 890.84 125.507C890.84 125.507 890.387 127.214 891.397 128.015C891.537 128.119 893.523 128.99 898.297 121.64C899.063 120.491 899.76 117.913 898.61 115.405C897.46 112.897 894.22 109.762 888.087 109.762C886.484 109.762 884.115 110.389 882.303 111.573Z" fill="#233862"/>
<path d="M880.735 125.298C880.735 125.298 880.596 126.064 882.373 126.656C882.373 126.656 883.836 127.179 884.115 126.378C884.115 126.413 882.965 125.298 880.735 125.298Z" fill="white"/>
<path d="M902.792 175.598C901.886 179.743 900.457 181.172 899.621 179.639C896.764 174.24 896.798 171.941 898.053 168.109C899.307 164.277 894.952 158.251 898.053 155.708C901.084 153.2 902.826 157.241 902.896 157.415C902.931 163.755 902.861 170.478 902.792 175.598Z" fill="#6385DB"/>
<path d="M902.652 175.076C902.652 175.076 900.561 178.524 899.168 178.385C897.774 178.28 895.927 177.758 894.847 178.768C893.767 179.778 892.059 182.426 892.512 183.122C893 183.819 894.951 183.192 896.345 182.426C897.739 181.659 899.934 182.809 901.119 181.938C902.304 181.067 905.091 177.584 905.091 177.584L902.652 175.076Z" fill="#FFB27D"/>
<path d="M901.816 137.629C901.816 137.629 919.273 154.036 917.008 164.939C915.963 169.92 912.757 174.1 904.22 180.893C904.22 180.893 900.178 178.106 899.307 175.842C899.307 175.842 907.043 164.939 906.764 163.058C906.381 160.794 901.119 155.081 899.203 154.21C897.321 153.339 897.495 139.545 901.816 137.629Z" fill="#739AF0"/>
<path d="M899.168 178.385C899.168 178.385 897.321 177.584 896.729 177.235C896.136 176.887 896.276 177.444 896.45 177.723C896.624 178.002 897.112 178.629 897.844 178.698C898.575 178.768 899.168 178.385 899.168 178.385Z" fill="#FFB27D"/>
<path d="M598.284 181.52C602.465 180.614 606.786 181.903 609.887 184.829C611.246 186.118 612.744 187.755 614.103 189.671C617.483 194.409 611.002 199.111 611.873 200.714C612.744 202.316 614.73 203.605 613.859 206.949C612.988 210.293 607.204 214.647 605.322 214.856C586.227 216.807 577.934 206.287 584.311 200.609C590.688 194.931 588.109 186.71 593.266 183.506C594.869 182.495 596.611 181.903 598.284 181.52Z" fill="#233862"/>
<path d="M608.145 211.233C608.145 211.233 626.02 218.758 629.261 218.618C632.536 218.479 652.641 212.487 652.641 212.487L652.119 215.936C652.119 215.936 636.578 224.853 631.142 225.376C625.811 225.864 607.517 220.569 605.74 219.454C604.033 218.34 603.023 212.348 608.145 211.233Z" fill="#EF9F6A"/>
<path d="M610.2 219.454C608.632 220.534 606.646 221.44 604.137 222.032C594.799 224.192 591.245 216.319 589.886 210.885C591.14 210.153 592.36 210.014 593.057 209.91C593.719 209.84 594.451 209.77 595.043 209.735C596.088 208.934 597.656 205.66 598.005 200.539L598.458 200.644L605.81 202.664C605.81 202.664 605.462 204.998 605.322 207.193C605.183 208.934 605.183 210.571 605.496 210.99C606.054 211.129 606.402 211.199 606.402 211.199C606.472 211.408 608.598 214.926 610.2 219.454Z" fill="#FFB27D"/>
<path d="M605.775 202.734C605.775 202.734 605.427 205.068 605.287 207.262C601.106 206.844 599.19 202.873 598.423 200.714L605.775 202.734Z" fill="#ED985F"/>
<path d="M607.03 204.928C607.03 204.928 597.134 204.371 597.587 198.24C598.005 192.109 597.029 187.895 603.371 187.964C609.713 188.069 610.758 190.472 611.107 192.562C611.455 194.652 609.608 204.894 607.03 204.928Z" fill="#FFB27D"/>
<path d="M611.037 189.114C609.643 187.163 608.458 187.477 607.762 187.999C602.57 184.655 598.772 188.765 598.772 188.765C597.796 193.12 594.416 195.419 594.416 195.419C594.416 195.419 596.158 196.812 600.374 195.906C605.741 194.722 607.587 190.054 607.831 189.358C608.389 189.95 609.12 190.298 609.678 191.587C610.34 193.085 610.758 193.956 610.758 196.429C610.828 196.429 613.128 192.075 611.037 189.114Z" fill="#233862"/>
<path d="M587.099 239.553C586.193 234.99 583.3 216.772 586.193 210.92C587.238 208.83 591.35 208.621 595.845 208.795C597.238 209.701 602.57 213.114 604.765 212.696C604.8 212.696 604.835 212.696 604.904 212.662C605.95 212.418 606.333 211.686 605.462 211.059C605.462 211.059 607.692 210.85 610.445 211.373C612.013 211.651 616.229 213.846 616.229 213.846C616.229 213.846 614.103 217.678 610.967 219.001C611.49 223.774 610.723 225.864 605.775 236.871C601.594 246.172 606.333 254.532 606.333 254.532C606.333 254.532 581.767 274.283 581.628 264.216C581.523 256.622 588.248 245.371 587.099 239.553Z" fill="#739AF0"/>
<path d="M607.552 275.99C608.876 275.851 610.096 275.119 610.828 274.004C610.932 273.83 611.072 273.621 611.211 273.447C613.999 269.197 615.114 256.239 621.386 242.445C622.919 239.066 628.424 238.474 629.923 234.677C629.923 234.677 633.616 222.346 622.849 221.997C612.082 221.649 594.033 256.274 593.754 259.897C593.51 263.38 586.645 278.359 607.552 275.99Z" fill="#233862"/>
<path d="M650.307 275.711H635.01C635.01 275.711 634.452 273.273 635.428 271.601C636.334 270.138 635.986 269.302 635.324 268.083C636.02 268.361 636.926 268.64 637.902 268.57C638.669 268.535 639.47 268.187 640.167 267.769C640.829 268.535 643.651 271.705 644.522 272.367C645.568 273.064 650.028 272.82 650.307 275.711Z" fill="#1A2D4C"/>
<path d="M587.691 219.454C587.691 219.454 589.677 227.571 605.322 230.88C620.933 234.189 608.877 223.042 608.877 223.042L592.5 218.653L587.691 219.454Z" fill="#6385DB"/>
<path d="M630.271 225.515C631.177 232.412 634.801 254.253 641.143 264.878C643.198 268.292 635.986 270.242 635.951 270.207C634.975 269.964 633.372 268.431 632.64 267.734C627.483 263.101 617.03 249.934 617.03 239.379C617.03 234.224 616.926 224.401 620.689 221.927C622.989 220.395 629.923 222.763 630.271 225.515Z" fill="#233862"/>
<path d="M619.818 234.712C618.319 238.509 614.103 238.056 612.57 241.4C611.699 243.281 610.897 245.162 610.131 247.043C610.061 247.217 609.992 247.426 609.922 247.6C608.981 249.899 608.145 252.163 607.343 254.358C606.124 257.702 605.044 260.872 604.068 263.624C602.5 268.117 601.176 271.636 599.991 273.412C599.015 274.91 598.423 275.711 598.423 275.711C574.973 279.334 581.245 263.659 582.534 259.862C583.719 256.413 604.138 220.813 614.905 221.161C625.672 221.51 619.818 234.712 619.818 234.712Z" fill="#2B478B"/>
<path d="M639.087 275.711H623.79C623.79 275.711 623.232 273.273 624.208 271.601C625.114 270.138 624.766 269.302 624.104 268.083C624.8 268.361 625.706 268.64 626.682 268.57C627.449 268.535 628.25 268.187 628.947 267.769C629.609 268.535 632.431 271.705 633.303 272.367C634.313 273.064 638.773 272.82 639.087 275.711Z" fill="#233862"/>
<path opacity="0.5" d="M610.131 247.043C610.061 247.217 609.991 247.426 609.922 247.6C608.981 249.899 608.145 252.163 607.343 254.358C604.103 245.545 605.775 236.871 605.775 236.871C608.11 238.474 609.504 242.48 610.131 247.043Z" fill="#233862"/>
<path d="M621.351 225.028C622.257 231.925 623.581 254.253 629.923 264.878C631.978 268.292 624.766 270.242 624.731 270.207C623.755 269.964 622.152 268.431 621.421 267.734C616.263 263.101 605.81 249.934 605.81 239.379C605.81 234.224 611.838 224.819 615.601 222.345C617.866 220.813 620.967 222.276 621.351 225.028Z" fill="#2B478B"/>
<path d="M654.488 203.57L638.808 201.898C638.355 201.863 637.902 202.107 637.763 202.56L632.153 217.295C631.909 217.957 632.362 218.653 633.059 218.653L648.634 219.28C649.052 219.28 649.436 219.036 649.61 218.653L655.359 204.963C655.603 204.336 655.185 203.64 654.488 203.57Z" fill="#233862"/>
<path d="M655.847 203.709L640.167 202.037C639.714 202.003 639.261 202.246 639.122 202.699L633.512 217.434C633.268 218.096 633.721 218.793 634.417 218.793L649.993 219.42C650.411 219.42 650.794 219.176 650.969 218.793L656.718 205.103C656.962 204.476 656.544 203.779 655.847 203.709Z" fill="#2B478B"/>
<path d="M647.171 210.572C647.38 210.049 647.101 209.631 646.578 209.631C646.056 209.631 645.463 210.049 645.289 210.572C645.08 211.094 645.359 211.512 645.881 211.512C646.404 211.547 646.962 211.129 647.171 210.572Z" fill="#EBF3FA"/>
<path d="M655.394 205.103C655.499 204.859 655.359 204.65 655.08 204.65C654.836 204.65 654.523 204.859 654.453 205.103C654.349 205.347 654.488 205.556 654.767 205.556C655.046 205.556 655.289 205.347 655.394 205.103Z" fill="#EBF3FA"/>
<path d="M589.921 210.92C589.921 210.92 611.664 218.932 614.939 218.758C617.065 218.653 634.592 212.487 634.592 212.487L636.16 215.483C636.16 215.483 619.086 226.456 614.382 226.386C605.113 226.282 589.468 220.604 587.691 219.489C585.914 218.34 584.764 212.035 589.921 210.92Z" fill="#FFB27D"/>
<path d="M634.557 212.453C634.557 212.453 636.125 210.014 637.693 209.945C639.261 209.875 641.979 211.025 642.885 211.199C643.826 211.373 646.439 212.244 645.672 213.498C644.871 214.787 641.247 215.065 639.679 214.787C638.111 214.508 636.125 215.414 636.125 215.414L634.557 212.453Z" fill="#FFB27D"/>
<path d="M637.275 210.049C637.275 210.049 639.784 208.9 640.481 208.691C641.177 208.482 641.038 208.691 640.829 209.352C640.62 210.014 639.331 210.676 639.331 210.885C639.366 211.129 637.275 210.049 637.275 210.049Z" fill="#FFB27D"/>
<path d="M654.244 211.199C654.244 211.199 652.676 208.725 652.154 208.621C650.586 208.307 650.586 210.363 650.934 211.721C651.283 213.149 652.502 214.508 652.851 214.369C653.164 214.229 654.628 212.487 654.244 211.199Z" fill="#FFB27D"/>
<path d="M654.314 211.686C654.314 211.686 654.802 214.473 652.154 215.936L652.955 214.02L654.314 211.686Z" fill="#FFB27D"/>
<path d="M608.876 201.376C608.876 201.376 607.936 200.992 605.322 201.236C605.322 201.236 605.462 202.246 607.413 202.351C608.493 202.421 608.876 201.376 608.876 201.376Z" fill="white"/>
<path d="M601.106 214.856C601.106 214.856 599.155 221.022 592.499 222.415C592.499 222.415 581.489 219.036 586.959 211.512C586.959 211.512 592.36 207.471 601.106 214.856Z" fill="#739AF0"/>
<path d="M598.005 108.438C598.005 108.438 596.019 112.131 592.43 113.559C589.747 114.604 586.018 113.559 585.844 113.454L585.635 118.018C585.635 118.018 591.733 118.436 595.287 115.614C596.367 114.743 597.726 112.514 598.144 111.155C598.632 109.623 598.005 108.438 598.005 108.438Z" fill="#6BB7BF"/>
<path d="M594.102 101.123L598.109 96.3857C598.109 96.3857 602.883 107.324 595.81 115.057C595.845 115.092 597.587 104.99 594.102 101.123Z" fill="#86D1CD"/>
<path d="M174.119 102.342C174.119 102.342 170.321 99.4511 169.311 95.1665C168.579 91.9618 170.426 87.9907 170.565 87.7817L165.478 86.7715C165.478 86.7715 163.979 93.5293 166.523 98.0577C167.324 99.4511 169.589 101.332 171.053 102.064C172.656 102.83 174.119 102.342 174.119 102.342Z" fill="#6BB7BF"/>
<path d="M182.97 99.2421L187.604 104.537C187.604 104.537 174.468 108.02 166.976 98.7544C166.976 98.7544 178.057 102.516 182.97 99.2421Z" fill="#86D1CD"/>
<path d="M767.42 121.501C767.42 121.501 759.231 120.735 759.859 112.096L754.04 110.319C754.04 110.319 753.343 115.405 762.82 120.909C769.092 124.532 767.42 121.501 767.42 121.501Z" fill="#5685D8"/>
<path d="M775.504 122.302C775.504 122.302 769.197 126.935 758.604 117.948C758.604 117.948 762.89 120.944 770.347 118.401L775.504 122.302Z" fill="#739AF0"/>
<path d="M362.315 121.501C362.315 121.501 354.127 120.735 354.754 112.096L348.935 110.319C348.935 110.319 348.238 115.405 357.716 120.909C363.953 124.532 362.315 121.501 362.315 121.501Z" fill="#5685D8"/>
<path d="M370.365 122.302C370.365 122.302 364.058 126.935 353.465 117.948C353.465 117.948 357.751 120.944 365.207 118.401L370.365 122.302Z" fill="#739AF0"/>
<path d="M551.592 85.3781C551.592 85.3781 546.992 82.4521 546.505 78.9338C546.505 78.9338 542.01 79.1777 541.034 80.6407C541.034 80.6407 543.09 86.458 545.529 87.5727C545.529 87.5727 551 87.921 551.592 85.3781Z" fill="#F99746"/>
<path d="M428.695 38.7006C428.695 38.7006 433.294 35.7746 433.782 32.2563C433.782 32.2563 438.277 32.5002 439.253 33.9632C439.253 33.9632 437.197 39.7805 434.758 40.8952C434.758 40.8603 429.322 41.2435 428.695 38.7006Z" fill="#F99746"/>
<path d="M466.466 112.166C466.466 112.166 470.508 109.623 470.926 106.557C470.926 106.557 474.864 106.766 475.7 108.055C475.7 108.055 473.888 113.141 471.762 114.082C471.762 114.082 466.989 114.395 466.466 112.166Z" fill="#86D1CD"/>
<path d="M420.715 171C412.805 168.98 404.129 156.753 404.129 156.753L406.359 154.837C408.659 157.554 418.241 162.222 418.241 162.222C418.206 159.749 418.241 157.485 418.415 155.429C419.461 141.426 424.757 136.758 426.22 135.713C426.464 135.539 426.604 135.469 426.604 135.469C426.604 135.469 426.604 135.574 426.604 135.748C426.639 136.166 426.673 137.002 426.708 138.152C426.987 146.721 427.335 172.672 420.715 171Z" fill="#FFB27D"/>
<path d="M427.057 151.876C427.022 152.642 427.022 153.409 426.987 154.175C426.743 160.41 426.046 166.611 424.513 170.234C424.13 171.139 423.712 171.871 423.224 172.393C422.527 173.194 421.691 173.578 420.715 173.438C415.384 172.672 413.99 167.691 413.711 163.963C413.537 161.664 413.781 159.853 413.781 159.853C413.781 159.853 416.394 159.853 416.847 159.435C417.718 158.634 418.102 154.767 418.346 150.448C418.659 144.805 418.729 138.5 419.286 137.385C420.82 134.285 426.778 134.285 426.778 134.285C426.778 134.285 427.301 142.784 427.057 151.876Z" fill="#739AF0"/>
<path d="M433.329 120.073C433.329 120.073 428.938 122.65 431.622 127.667C431.622 127.667 427.754 126.97 426.952 125.82C426.952 125.82 427.057 126.308 427.196 126.552C427.196 126.552 423.642 125.751 422.492 124.288C421.342 122.825 427.022 105.129 436.221 109.692C436.221 109.692 444.653 111.26 441.343 120.595C438.033 129.931 441.169 130.767 441.169 130.767C441.169 130.767 440.193 130.976 439.775 130.836C439.775 130.836 439.218 130.453 439.183 130.07C439.183 130.07 439.148 130.627 439.287 130.836C439.287 130.836 435.838 130.279 434.514 128.537C433.155 126.831 432.353 121.884 433.329 120.073Z" fill="#233862"/>
<path d="M437.684 132.021C437.824 133.17 437.963 134.215 438.033 134.703C438.172 135.818 427.649 135.086 426.987 135.086C427.44 134.877 428.869 130.349 429.322 128.642C429.879 126.552 430.297 124.288 430.297 124.288L437.719 124.74L438.172 124.775C437.893 125.785 437.719 126.761 437.58 127.632C437.545 127.736 437.545 127.876 437.545 127.98C437.406 128.99 437.51 130.593 437.684 132.021Z" fill="#FFB27D"/>
<path d="M429.287 123.521C429.287 123.521 428.067 119.689 428.311 116.763C428.486 114.673 431.447 107.532 438.625 110.563C438.625 110.563 440.716 111.364 442.389 113.245C443.713 114.778 445.42 117.739 441.099 123.521L439.845 125.542L429.287 123.521Z" fill="#233862"/>
<path d="M427.928 152.468L427.545 165.078C427.545 165.078 426.151 167.482 424.513 170.234C424.095 170.93 423.642 171.662 423.224 172.393C422.527 173.195 421.691 173.578 420.715 173.438C415.384 172.672 413.99 167.691 413.711 163.964C413.537 161.665 413.781 159.853 413.781 159.853C413.781 159.853 416.394 159.853 416.847 159.435C417.718 158.634 418.102 154.767 418.346 150.448L422.004 148.393L427.092 151.841L427.928 152.468Z" fill="#6385DB"/>
<path d="M437.684 132.021C432.492 130.488 430.262 124.497 430.262 124.497C432.458 124.566 435.315 126.099 437.58 127.632C437.545 127.736 437.545 127.875 437.545 127.98C437.406 128.99 437.51 130.593 437.684 132.021Z" fill="#ED975D"/>
<path d="M438.033 129.896C438.033 129.896 428.625 127.562 430.158 121.745C431.691 115.928 431.517 111.713 437.58 112.932C443.643 114.151 444.2 116.694 444.165 118.749C444.165 120.839 440.542 130.349 438.033 129.896Z" fill="#FFB27D"/>
<path d="M444.793 115.475C442.005 111.051 438.66 110.598 438.66 110.598C436.256 108.996 433.12 112.932 433.12 112.932C431.378 116.938 427.754 118.54 427.754 118.54C427.754 118.54 429.182 120.038 433.364 120.073C434.653 120.073 435.942 119.515 437.127 118.714C434.827 120.944 432.144 122.302 432.144 122.302C437.197 121.431 440.716 115.858 441.343 114.813C442.005 115.893 442.702 117.182 442.737 117.948C442.807 119.55 442.214 122.65 443.12 122.79C443.12 122.79 446.674 118.436 444.793 115.475Z" fill="#233862"/>
<path d="M436.569 126.169C436.569 126.169 436.674 127.039 437.266 127.248C437.824 127.457 439.322 127.841 439.496 127.736C439.636 127.632 440.228 126.935 440.228 126.935C440.228 126.935 437.824 126.064 436.569 126.169Z" fill="white"/>
<path d="M433.085 215.274C432.98 215.762 432.841 216.249 432.737 216.772C432.04 219.698 431.378 222.45 430.959 224.714C430.437 227.675 430.297 229.904 430.994 230.81C433.921 234.642 430.994 264.982 430.994 264.982L427.684 268.396C427.684 268.396 421.9 238.439 420.332 233.736C419.635 231.611 418.59 222.485 417.684 213.184C417.649 212.731 417.579 212.244 417.544 211.791C417.37 210.154 417.231 208.551 417.091 206.949C416.255 198.136 415.663 190.612 415.663 190.612C415.663 190.612 421.795 186.292 427.336 185.839C430.611 185.561 433.677 186.606 435.21 190.612C437.406 196.499 435.176 206.6 433.085 215.274Z" fill="#FFB27D"/>
<path d="M432.144 217.294C427.858 212.627 425.036 205.939 419.809 196.568C419.356 191.796 423.119 187.268 427.301 185.839C430.576 185.561 433.642 186.606 435.176 190.612C437.406 196.499 434.235 208.621 432.144 217.294Z" fill="#ED975D"/>
<path d="M449.671 157.415L472.041 163.197V165.81C472.041 165.81 449.81 165.566 448.347 163.058C446.918 160.585 449.671 157.415 449.671 157.415Z" fill="#FFB27D"/>
<path d="M472.006 243.42L470.961 247.739C470.961 247.739 440.716 232.134 436.813 229.138C435.245 227.919 433.155 221.405 431.238 213.985C428.381 202.943 425.837 190.019 425.837 190.019C425.837 190.019 430.088 173.717 441.413 183.68C448.207 189.636 447.162 201.166 446.396 210.084C445.908 216.075 445.559 220.952 447.789 222.206C452.18 224.645 465.072 235.931 469.149 243.699L472.006 243.42Z" fill="#FFB27D"/>
<path d="M458.243 166.681C456.361 168.666 453.817 169.85 449.671 169.223C447.859 168.945 444.688 166.924 443.016 163.58C442.772 163.093 442.145 161.63 442.145 161.63C442.145 161.63 439.845 163.929 439.775 164.381V164.416C439.74 164.625 439.601 165.67 439.566 166.228C439.566 166.332 439.531 166.402 439.531 166.437V166.541C439.496 166.82 439.705 167.9 439.705 167.9C439.705 167.9 429.775 172.254 420.994 167.969C420.994 167.969 420.959 167.969 420.959 167.935C420.506 167.726 420.088 167.482 419.635 167.238C419.635 167.238 419.461 166.158 419.252 164.312C418.694 159.609 417.858 149.925 418.903 141.321C419.182 139.022 425.036 135.922 426.813 134.32C427.231 133.971 427.649 132.892 427.51 132.195C427.405 131.603 428.102 130.627 428.66 130.802C429.74 131.15 432.806 132.683 435.001 132.09C436.082 131.812 437.44 130.558 438.486 130.836C439.775 131.185 438.416 134.25 439.148 134.285C440.158 134.32 444.618 134.389 445.977 136.27C447.092 137.803 447.685 140.66 449.636 146.094C453.295 156.265 458.626 154.349 460.752 157.38C462.076 159.47 461.274 163.476 458.243 166.681Z" fill="#739AF0"/>
<path d="M442.11 161.63C442.11 161.63 440.995 159.052 440.193 154.733C439.949 153.513 430.576 162.884 432.946 166.681C435.28 170.478 442.11 161.63 442.11 161.63Z" fill="#6385DB"/>
<path d="M455.63 200.644C455.455 200.679 452.563 201.515 448.277 202.42C447.232 202.629 446.082 202.873 444.897 203.082C435.664 204.789 422.666 206.182 414.826 202.699C414.826 202.699 415.384 189.671 416.917 179.848C418.137 171.975 419.565 167.238 419.565 167.238C419.565 167.238 427.545 168.875 435.907 167.273C435.977 167.273 436.082 167.238 436.151 167.238C437.232 167.029 438.416 166.925 439.496 166.576C439.496 166.576 445.734 175.424 448.974 181.729C451.204 186.048 455.63 200.644 455.63 200.644Z" fill="#2B478B"/>
<path d="M455.629 200.644C455.455 200.679 452.563 201.515 448.277 202.42C447.232 202.629 446.082 202.873 444.897 203.082C430.576 184.341 435.942 167.308 435.942 167.308C436.012 167.273 436.047 167.238 436.116 167.203C437.197 166.994 438.381 166.89 439.462 166.541C439.462 166.541 445.699 175.389 448.939 181.694C451.204 186.048 455.629 200.644 455.629 200.644Z" fill="#233862"/>
<path d="M472.007 163.197C472.007 163.197 476.118 161.177 477.756 160.968C479.394 160.759 482.111 160.724 482.111 160.968C482.111 161.212 479.185 163.058 478.383 163.197C477.617 163.337 476.083 164.451 476.571 164.556C477.024 164.695 479.428 164.138 479.463 164.556C479.498 164.974 478 165.252 477.721 165.566C477.477 165.88 476.536 166.298 475.073 166.089C473.609 165.88 471.972 165.81 471.972 165.81V163.197H472.007Z" fill="#FFB27D"/>
<path d="M478 245.127C478 245.127 478 245.092 478 245.127C477.825 245.092 477.198 244.883 476.815 243.908C476.536 243.246 476.467 242.723 476.223 242.061L475.212 240.285C474.132 238.891 473.783 239.205 473.783 239.205C473.783 239.205 473.505 239.553 473.087 240.041C472.39 240.807 471.344 241.922 470.613 242.201C470.09 242.41 469.741 242.723 469.567 243.037C469.323 243.42 469.254 243.768 469.254 243.768C469.254 243.768 471.449 244.151 471.24 245.231C470.857 247.321 470.961 247.704 470.996 247.774C470.996 247.774 474.724 249.725 475.944 250.108C478.069 250.805 479.184 252.233 479.881 252.895C480.16 253.173 480.543 253.278 480.927 253.208C481.484 253.104 482.216 252.93 482.39 252.581L478 245.127Z" fill="#2B478B"/>
<path d="M434.304 269.929L432.527 270.904C431.865 271.148 431.343 271.217 430.681 271.461C429.67 271.845 428.973 272.611 428.938 272.75C428.416 274.805 427.684 274.736 427.684 274.736H420.506C420.157 274.562 420.75 273.099 421.029 272.855C421.725 272.193 423.746 272.506 424.478 270.416C424.896 269.232 426.952 265.54 426.952 265.54C427.022 265.505 427.405 265.435 429.496 265.853C430.576 266.062 431.029 263.902 431.029 263.902C431.029 263.902 431.377 263.972 431.761 264.251C432.074 264.46 432.388 264.808 432.562 265.331C432.806 266.062 433.886 267.142 434.618 267.873C435.071 268.291 435.419 268.605 435.419 268.605C435.419 268.605 435.768 268.918 434.304 269.929Z" fill="#2B478B"/>
<path d="M406.359 154.802C406.359 154.802 406.707 152.538 406.115 151.04C405.488 149.473 405.349 147.731 404.861 148.428C404.373 149.124 404.791 151.04 404.338 150.97C404.164 150.936 403.571 150.622 403.328 149.682C403.049 148.497 403.746 146.964 402.77 147.104C401.829 147.243 400.575 151.597 401.202 152.747C401.829 153.931 404.129 156.718 404.129 156.718L406.359 154.802Z" fill="#FFB27D"/>
<path d="M439.74 164.347L439.496 166.193C439.496 166.297 439.461 166.367 439.461 166.402V166.506C434.583 168.318 431.168 169.189 428.032 169.189C424.618 169.189 422.318 168.527 420.924 167.9C420.924 167.9 420.889 167.9 420.889 167.865C420.262 167.586 419.844 167.342 419.565 167.168C419.565 167.168 419.391 166.088 419.182 164.242C420.82 165.148 428.52 168.527 439.74 164.347Z" fill="#233862"/>
<path d="M781.671 274.631V143.69H852.964V169.119H812.126V193.19H849.793V219.454H812.126V248.018H852.964V274.631H781.671Z" fill="#F77D48"/>
<path d="M846.204 143.69C846.204 143.69 845.054 142.158 843.068 142.262C841.082 142.367 840.001 143.621 840.838 144.422C841.674 145.223 843.556 145.153 844.88 144.422C846.204 143.69 846.204 143.69 846.204 143.69Z" fill="#FFB27D"/>
<path d="M951.052 277H1.04534C0.452981 277 0 276.512 0 275.955V275.641C0 275.049 0.487826 274.596 1.04534 274.596H951.052C951.644 274.596 952.097 275.084 952.097 275.641V275.955C952.132 276.512 951.644 277 951.052 277Z" fill="#2E3552"/>
</svg>
