<svg width="18" height="18" viewBox="0 0 18 18" fill="none" xmlns="http://www.w3.org/2000/svg">
<g clip-path="url(#clip0_1678_34659)">
<path d="M9 0C4.05 0 0 4.05 0 9C0 13.95 4.05 18 9 18C13.95 18 18 13.95 18 9C18 4.05 13.95 0 9 0ZM9 16.65C4.77 16.65 1.35 13.23 1.35 9C1.35 4.77 4.77 1.35 9 1.35C13.23 1.35 16.65 4.77 16.65 9C16.65 13.23 13.23 16.65 9 16.65ZM13.68 6.48C13.68 6.66 13.59 6.84 13.5 6.93L8.46 11.97C8.37 12.06 8.19 12.15 8.01 12.15C7.83 12.15 7.65 12.06 7.56 11.97L4.68 9.09C4.41 9 4.32 8.82 4.32 8.64C4.32 8.28 4.59 7.92 5.04 7.92C5.22 8.01 5.4 8.1 5.49 8.19L7.92 10.62L12.51 6.03C12.6 5.94 12.78 5.85 12.96 5.85C13.32 5.76 13.68 6.12 13.68 6.48Z" fill="#009A29"/>
</g>
<defs>
<clipPath id="clip0_1678_34659">
<rect width="18" height="18" fill="white"/>
</clipPath>
</defs>
</svg>
