<svg width="18" height="18" viewBox="0 0 18 18" fill="none" xmlns="http://www.w3.org/2000/svg">
<g clip-path="url(#clip0_1677_34634)">
<path d="M9 0C6.57 0 4.32 0.9 2.61 2.61C0.99 4.32 0 6.57 0 8.91C0 13.95 3.96 18 8.91 18C13.95 18 18 14.04 18 9.09C18 4.05 14.04 0 9 0ZM9 16.83C4.59 16.83 1.08 13.32 1.17 8.91C1.17 4.59 4.68 1.08 9 1.17C13.32 1.17 16.83 4.68 16.83 9C16.83 13.41 13.41 16.83 9 16.83ZM8.1 7.47V10.35C8.1 10.98 8.46 11.16 9.09 11.16C9.72 11.16 9.72 10.8 9.72 10.35C9.81 8.64 9.81 6.93 9.9 5.22C9.99 4.59 9.9 4.14 9 4.14C8.1 4.14 8.01 4.5 8.01 5.22L8.1 7.47ZM10.17 13.41C10.08 14.13 9.63 14.49 9 14.49C8.37 14.49 7.92 14.13 7.83 13.5C7.74 12.78 8.19 12.42 8.91 12.42C9.63 12.33 9.99 12.78 10.17 13.41V13.41Z" fill="#FF800B"/>
</g>
<defs>
<clipPath id="clip0_1677_34634">
<rect width="18" height="18" fill="white"/>
</clipPath>
</defs>
</svg>
