<svg width="24" height="24" viewBox="0 0 24 24" fill="none" xmlns="http://www.w3.org/2000/svg">
<g clip-path="url(#clip0_1400_34639)">
<path d="M22.9245 11.1604C23.3677 17.5852 18.287 22.9346 11.9571 22.9346C10.0495 22.9346 7.04645 21.6186 6.06392 21.163C5.84947 21.0638 5.60979 21.0325 5.37704 21.0733L2.24859 21.8325C1.94651 21.9058 1.67313 21.6354 1.74285 21.3327L2.51179 17.9954C2.54754 17.7809 2.52203 17.5606 2.43818 17.3599C2.05753 16.4474 0.962646 13.6717 0.962646 11.9402C0.962646 5.61024 6.3121 0.529616 12.7369 0.972745C18.1583 1.34669 22.5506 5.73896 22.9245 11.1604Z" stroke="#026DE9" stroke-width="2"/>
<path fill-rule="evenodd" clip-rule="evenodd" d="M12.6689 11.9198C13.9228 10.8981 15.5874 10.1111 16.9454 11.3898C18.2782 12.6455 17.675 14.5106 16.4316 16.1321L16.0572 15.7607L12.6689 11.9198ZM11.1967 11.9194C9.94296 10.8979 8.27866 10.1113 6.92075 11.3898C5.58806 12.6453 6.19115 14.5102 7.43423 16.1316L7.80811 15.7607L11.1967 11.9194ZM8.33166 17.1552C9.53147 18.3646 10.9709 19.2839 11.9331 19.4412C12.8952 19.2839 14.3344 18.3648 15.5341 17.1556L15.0766 16.7017C15.0659 16.6911 15.0556 16.6801 15.0456 16.6688L11.9327 13.1401L8.81971 16.6688C8.80976 16.6801 8.79943 16.6911 8.78874 16.7017L8.33166 17.1552Z" fill="#026DE9"/>
<path d="M12.0002 9.65352C13.3701 9.65352 14.4807 8.54298 14.4807 7.17308C14.4807 5.80316 13.3701 4.69263 12.0002 4.69263C10.6303 4.69263 9.51978 5.80316 9.51978 7.17308C9.51978 8.54298 10.6303 9.65352 12.0002 9.65352Z" fill="#026DE9"/>
</g>
<defs>
<clipPath id="clip0_1400_34639">
<rect width="24" height="24" fill="white"/>
</clipPath>
</defs>
</svg>
